<svg width="243" height="226" viewBox="0 0 243 226" fill="none" xmlns="http://www.w3.org/2000/svg">
<path d="M216.776 86.3132C210.661 71.1806 191.221 44.0606 185.834 39.0415C178.666 32.3745 165.402 28.25 121.5 28.25C77.598 28.25 64.3343 32.3745 57.1657 39.0415C51.7792 44.0606 32.3393 71.1806 26.2339 86.3132C18.1238 91.0592 0 106.333 0 117.708V155.375C0 161.505 4.2525 166.675 10.125 168.634V178.917C10.125 189.303 19.2071 197.75 30.375 197.75H40.5C51.6679 197.75 60.75 189.303 60.75 178.917V171.449L67.2907 177.542C67.7618 177.979 68.3207 178.325 68.9358 178.561C69.5508 178.797 70.2097 178.918 70.875 178.917H172.125C172.79 178.918 173.449 178.797 174.064 178.561C174.679 178.325 175.238 177.979 175.709 177.542L182.25 171.449V178.917C182.25 189.303 191.332 197.75 202.5 197.75H212.625C223.793 197.75 232.875 189.303 232.875 178.917V168.634C238.747 166.684 243 161.505 243 155.375V117.708C243 106.333 224.866 91.0592 216.776 86.3132Z" fill="black"/>
<path d="M64.3343 45.7085C68.3438 41.9606 78.4891 37.6666 121.5 37.6666C164.511 37.6666 174.646 41.9606 178.666 45.7085C182.007 48.7971 195.109 66.5852 202.935 80.7008C191.484 77.6121 171.123 75.3333 121.5 75.3333C71.8774 75.3333 51.5161 77.6121 40.0647 80.7008C47.8913 66.5852 61.0032 48.7971 64.3343 45.7085Z" fill="white"/>
<path d="M42.849 122.417L56.3557 141.25H10.125V122.417H42.849Z" fill="#F2F2F2"/>
<path d="M50.625 178.917C50.625 184.105 46.0789 188.333 40.5 188.333H30.375C24.7961 188.333 20.25 184.105 20.25 178.917V169.5H50.625V178.917Z" fill="#97C15B"/>
<path d="M222.75 178.917C222.75 184.105 218.204 188.333 212.625 188.333H202.5C196.921 188.333 192.375 184.105 192.375 178.917V169.5H222.75V178.917Z" fill="#97C15B"/>
<path opacity="0.1" d="M20.25 169.5H50.625V178.917H20.25V169.5Z" fill="black"/>
<path opacity="0.1" d="M192.375 169.5H222.75V178.917H192.375V169.5Z" fill="black"/>
<path d="M227.812 160.083H182.25C181.585 160.082 180.926 160.203 180.311 160.439C179.696 160.675 179.137 161.021 178.666 161.458L170.029 169.5H72.9709L64.3343 161.458C63.8632 161.021 63.3043 160.675 62.6892 160.439C62.0742 160.203 61.4153 160.082 60.75 160.083H15.1875C13.8448 160.083 12.5572 159.587 11.6078 158.704C10.6584 157.821 10.125 156.624 10.125 155.375V150.667H65.8125C66.7282 150.666 67.6267 150.435 68.4122 149.997C69.1976 149.559 69.8408 148.932 70.273 148.181C70.7052 147.43 70.9104 146.584 70.8666 145.733C70.8228 144.883 70.5318 144.059 70.0245 143.35L49.7745 115.1C49.3126 114.454 48.6865 113.925 47.9517 113.559C47.2169 113.192 46.3962 113 45.5625 113H11.9779C16.2911 105.909 27.4185 96.0971 32.6329 93.6676C42.0795 89.2794 51.8299 84.75 121.5 84.75C191.17 84.75 200.931 89.2794 210.357 93.6676C215.581 96.0971 226.709 105.909 231.022 113H197.438C196.604 113 195.783 113.192 195.048 113.559C194.314 113.925 193.687 114.454 193.225 115.1L172.975 143.35C172.468 144.059 172.177 144.883 172.133 145.733C172.09 146.584 172.295 147.43 172.727 148.181C173.159 148.932 173.802 149.559 174.588 149.997C175.373 150.435 176.272 150.666 177.188 150.667H232.875V155.375C232.875 156.624 232.342 157.821 231.392 158.704C230.443 159.587 229.155 160.083 227.812 160.083Z" fill="#97C15B"/>
<path opacity="0.2" d="M37.7054 98.3759C47.1217 93.9877 56.8822 89.4583 126.562 89.4583C196.243 89.4583 205.993 93.9877 215.419 98.3759C217.596 99.3929 220.796 101.709 224.107 104.553C219.297 99.6848 213.658 95.2025 210.357 93.6676C200.941 89.2794 191.18 84.75 121.5 84.75C51.8197 84.75 42.0693 89.2794 32.6429 93.6676C27.4184 96.0971 16.291 105.909 11.9778 113H20.5537C25.7782 106.842 33.5744 100.297 37.7054 98.3759Z" fill="white"/>
<path d="M232.875 122.417V141.25H186.644L200.151 122.417H232.875Z" fill="#F2F2F2"/>
<path d="M42.849 122.417L56.3557 141.25H10.125V122.417H42.849Z" fill="#F2F2F2"/>
<path d="M232.875 122.417V141.25H186.644L200.151 122.417H232.875Z" fill="#F2F2F2"/>
<path opacity="0.1" d="M42.849 122.417H10.125V127.125H46.2308L42.849 122.417Z" fill="black"/>
<path opacity="0.1" d="M200.151 122.417L196.769 127.125H232.875V122.417H200.151Z" fill="black"/>
<path d="M167.063 122.417H75.9376C75.0218 122.417 74.1234 122.648 73.3379 123.086C72.5524 123.524 71.9093 124.152 71.4771 124.903C71.0449 125.653 70.8397 126.499 70.8835 127.35C70.9272 128.201 71.2183 129.024 71.7256 129.733L91.9756 157.983C92.4374 158.629 93.0636 159.158 93.7984 159.525C94.5332 159.891 95.3539 160.083 96.1876 160.083H146.813C147.646 160.083 148.467 159.891 149.202 159.525C149.937 159.158 150.563 158.629 151.025 157.983L171.275 129.733C171.782 129.024 172.073 128.201 172.117 127.35C172.16 126.499 171.955 125.653 171.523 124.903C171.091 124.152 170.448 123.524 169.662 123.086C168.877 122.648 167.978 122.417 167.063 122.417Z" fill="black"/>
<path d="M144.099 150.667H98.901L85.3943 131.833H157.606L144.099 150.667Z" fill="white"/>
<path opacity="0.1" d="M150.863 141.25L157.606 131.833H85.3943L92.1477 141.25H150.863Z" fill="black"/>
<path d="M64.3343 45.7085C68.3438 41.9606 78.4891 37.6666 121.5 37.6666C164.511 37.6666 174.646 41.9606 178.666 45.7085C182.007 48.7971 195.109 66.5852 202.935 80.7008C191.484 77.6121 171.123 75.3333 121.5 75.3333C71.8774 75.3333 51.5161 77.6121 40.0647 80.7008C47.8913 66.5852 61.0032 48.7971 64.3343 45.7085Z" fill="url(#paint0_linear_112_314)"/>
<path d="M216.776 86.3132C210.661 71.1806 191.221 44.0606 185.834 39.0415C178.666 32.3745 165.402 28.25 121.5 28.25C77.598 28.25 64.3342 32.3745 57.1657 39.0415C51.7792 44.0606 32.3392 71.1806 26.2339 86.3132C18.1237 91.0592 0 106.333 0 117.708V155.375C0 161.505 4.2525 166.675 10.125 168.634V178.917C10.125 189.303 19.2071 197.75 30.375 197.75H40.5C51.6679 197.75 60.75 189.303 60.75 178.917V171.449L67.2907 177.542C67.7618 177.979 68.3207 178.325 68.9357 178.561C69.5508 178.797 70.2097 178.918 70.875 178.917H172.125C172.79 178.918 173.449 178.797 174.064 178.561C174.679 178.325 175.238 177.979 175.709 177.542L182.25 171.449V178.917C182.25 189.303 191.332 197.75 202.5 197.75H212.625C223.793 197.75 232.875 189.303 232.875 178.917V168.634C238.747 166.684 243 161.505 243 155.375V117.708C243 106.333 224.866 91.0592 216.776 86.3132Z" fill="url(#paint1_linear_112_314)"/>
<defs>
<linearGradient id="paint0_linear_112_314" x1="59.8243" y1="41.2925" x2="189.976" y2="106.548" gradientUnits="userSpaceOnUse">
<stop stop-color="white" stop-opacity="0.2"/>
<stop offset="1" stop-color="white" stop-opacity="0"/>
</linearGradient>
<linearGradient id="paint1_linear_112_314" x1="17.5793" y1="79.3574" x2="231.187" y2="186.457" gradientUnits="userSpaceOnUse">
<stop stop-color="white" stop-opacity="0.2"/>
<stop offset="1" stop-color="white" stop-opacity="0"/>
</linearGradient>
</defs>
</svg>
