<svg width="20" height="18" viewBox="0 0 20 18" fill="none" xmlns="http://www.w3.org/2000/svg">
<path d="M17 0.5H3C2.20435 0.5 1.44129 0.835825 0.87868 1.4336C0.316071 2.03137 0 2.84212 0 3.6875V14.3125C0 15.1579 0.316071 15.9686 0.87868 16.5664C1.44129 17.1642 2.20435 17.5 3 17.5H17C17.7956 17.5 18.5587 17.1642 19.1213 16.5664C19.6839 15.9686 20 15.1579 20 14.3125V3.6875C20 2.84212 19.6839 2.03137 19.1213 1.4336C18.5587 0.835825 17.7956 0.5 17 0.5V0.5ZM16.33 2.625L10 7.67188L3.67 2.625H16.33ZM17 15.375H3C2.73478 15.375 2.48043 15.2631 2.29289 15.0638C2.10536 14.8645 2 14.5943 2 14.3125V3.95312L9.4 9.85C9.5731 9.98794 9.78363 10.0625 10 10.0625C10.2164 10.0625 10.4269 9.98794 10.6 9.85L18 3.95312V14.3125C18 14.5943 17.8946 14.8645 17.7071 15.0638C17.5196 15.2631 17.2652 15.375 17 15.375Z" fill="#AAAAAA"/>
</svg>
