<svg width="19" height="22" viewBox="0 0 19 22" fill="none" xmlns="http://www.w3.org/2000/svg">
<path d="M9.5 10.6237C8.42037 10.6239 7.36494 10.3125 6.46719 9.72888C5.56943 9.14529 4.86968 8.31574 4.45642 7.34514C4.04316 6.37453 3.93496 5.30647 4.14549 4.27602C4.35603 3.24557 4.87585 2.29902 5.63921 1.55607C6.40257 0.813118 7.37519 0.30714 8.43407 0.102121C9.49295 -0.102897 10.5905 0.00225377 11.588 0.404275C12.5854 0.806297 13.438 1.48713 14.0378 2.36068C14.6377 3.23423 14.9578 4.26125 14.9578 5.31187C14.9564 6.72013 14.381 8.07033 13.3578 9.06619C12.3346 10.062 10.9471 10.6222 9.5 10.6237ZM9.5 1.53185C8.73153 1.53171 7.98027 1.75334 7.34125 2.16872C6.70223 2.5841 6.20414 3.17456 5.90999 3.86543C5.61584 4.5563 5.53884 5.31654 5.68873 6.05C5.83861 6.78346 6.20865 7.45719 6.75204 7.98598C7.29543 8.51477 7.98777 8.87487 8.74148 9.02073C9.4952 9.16658 10.2764 9.09165 10.9864 8.8054C11.6963 8.51916 12.3031 8.03446 12.7299 7.41261C13.1568 6.79076 13.3845 6.05969 13.3844 5.31187C13.3832 4.3097 12.9736 3.34891 12.2454 2.64027C11.5172 1.93162 10.5298 1.533 9.5 1.53185ZM18.2133 22H0.786704L0 21.2344C-1.85901e-08 20.0204 0.245725 18.8183 0.723145 17.6966C1.20056 16.575 1.90033 15.5559 2.78249 14.6974C3.66464 13.839 4.71191 13.158 5.86451 12.6934C7.0171 12.2289 8.25244 11.9897 9.5 11.9897C10.7476 11.9897 11.9829 12.2289 13.1355 12.6934C14.2881 13.158 15.3354 13.839 16.2175 14.6974C17.0997 15.5559 17.7994 16.575 18.2769 17.6966C18.7543 18.8183 19 20.0204 19 21.2344L18.2133 22ZM1.61062 20.4689H17.3894C17.197 18.5626 16.2827 16.7942 14.8245 15.5077C13.3662 14.2212 11.4683 13.5086 9.5 13.5086C7.53168 13.5086 5.63376 14.2212 4.17552 15.5077C2.71727 16.7942 1.80301 18.5626 1.61062 20.4689Z" fill="#AAAAAA"/>
</svg>
