<svg width="25" height="26" viewBox="0 0 25 26" fill="none" xmlns="http://www.w3.org/2000/svg">
<g clip-path="url(#clip0_92_221)">
<rect x="0.25" y="0.75" width="24.5" height="24.5" rx="9.75" fill="white" stroke="#97C15B" stroke-width="0.5"/>
<path d="M15.5763 15.0472H15.0343L14.8422 14.8619C15.5146 14.0798 15.9194 13.0643 15.9194 11.9597C15.9194 9.49657 13.9228 7.5 11.4597 7.5C8.99657 7.5 7 9.49657 7 11.9597C7 14.4228 8.99657 16.4194 11.4597 16.4194C12.5643 16.4194 13.5798 16.0146 14.3619 15.3422L14.5472 15.5343V16.0763L17.9777 19.5L19 18.4777L15.5763 15.0472ZM11.4597 15.0472C9.75129 15.0472 8.37221 13.6681 8.37221 11.9597C8.37221 10.2513 9.75129 8.87221 11.4597 8.87221C13.1681 8.87221 14.5472 10.2513 14.5472 11.9597C14.5472 13.6681 13.1681 15.0472 11.4597 15.0472Z" fill="#97C15B"/>
</g>
<defs>
<clipPath id="clip0_92_221">
<rect width="25" height="25" fill="white" transform="translate(0 0.5)"/>
</clipPath>
</defs>
</svg>
