<svg width="22" height="22" viewBox="0 0 22 22" fill="none" xmlns="http://www.w3.org/2000/svg">
<path fill-rule="evenodd" clip-rule="evenodd" d="M8.08963 19.6608V16.5839C8.08962 15.8013 8.72766 15.1653 9.51818 15.1601H12.4139C13.2082 15.1601 13.8521 15.7975 13.8521 16.5839V19.6704C13.8519 20.3349 14.3876 20.878 15.0586 20.8935H16.9891C18.9135 20.8935 20.4736 19.3491 20.4736 17.4439V8.69082C20.4633 7.94132 20.1078 7.2375 19.5083 6.77966L12.9062 1.51443C11.7495 0.597648 10.1053 0.597648 8.94869 1.51443L2.37545 6.78922C1.77368 7.2452 1.41763 7.95019 1.41022 8.70037V17.4439C1.41022 19.3491 2.97028 20.8935 4.89471 20.8935H6.82518C7.51286 20.8935 8.07033 20.3416 8.07033 19.6608" fill="#97C15B"/>
<path d="M8.08963 19.6608V16.5839C8.08962 15.8013 8.72766 15.1653 9.51818 15.1601H12.4139C13.2082 15.1601 13.8521 15.7975 13.8521 16.5839V19.6704C13.8519 20.3349 14.3876 20.878 15.0586 20.8935H16.9891C18.9135 20.8935 20.4736 19.3491 20.4736 17.4439V8.69082C20.4633 7.94132 20.1078 7.2375 19.5083 6.77966L12.9062 1.51443C11.7495 0.597648 10.1053 0.597648 8.94869 1.51443L2.37545 6.78922C1.77368 7.2452 1.41763 7.95019 1.41022 8.70037V17.4439C1.41022 19.3491 2.97028 20.8935 4.89471 20.8935H6.82518C7.51286 20.8935 8.07033 20.3416 8.07033 19.6608" stroke="#97C15B" stroke-width="1.376" stroke-linecap="round" stroke-linejoin="round"/>
</svg>
