<svg width="36" height="17" viewBox="0 0 36 17" fill="none" xmlns="http://www.w3.org/2000/svg">
<path d="M33.9248 3.62222L21.8366 0.387312C19.8462 -0.142591 17.7243 0.0971616 15.9088 1.05709L10.5912 3.90723L2.84717 5.3323C2.27168 5.33229 1.71954 5.55555 1.31125 5.95335C0.902955 6.35115 0.671653 6.8912 0.667816 7.45566L0.667816 11.7309C0.667816 12.2978 0.897426 12.8415 1.30613 13.2424C1.71484 13.6433 2.26917 13.8685 2.84717 13.8685H4.30008C4.44287 14.695 4.87941 15.4452 5.5323 15.9862C6.18519 16.5272 7.01227 16.824 7.86696 16.824C8.72164 16.824 9.54872 16.5272 10.2016 15.9862C10.8545 15.4452 11.291 14.695 11.4338 13.8685H24.6407C24.7835 14.695 25.2201 15.4452 25.873 15.9862C26.5258 16.5272 27.3529 16.824 28.2076 16.824C29.0623 16.824 29.8894 16.5272 30.5423 15.9862C31.1952 15.4452 31.6317 14.695 31.7745 13.8685H33.2274C33.8054 13.8685 34.3597 13.6433 34.7684 13.2424C35.1771 12.8415 35.4067 12.2978 35.4067 11.7309V5.61732C35.4004 5.17528 35.2545 4.74606 34.989 4.38875C34.7236 4.03145 34.3518 3.76364 33.9248 3.62222ZM26.8201 3.20895V3.89298H25.8031L25.2364 2.76718L26.8201 3.20895ZM16.6498 2.32541C18.0475 1.59385 19.6673 1.38134 21.2119 1.72688H21.5025H21.7495L23.4058 2.16865L24.2194 3.77898H13.744L16.6498 2.32541ZM7.93234 15.3933C7.5013 15.3933 7.07994 15.2679 6.72155 15.033C6.36316 14.7982 6.08382 14.4643 5.91887 14.0737C5.75392 13.6831 5.71076 13.2533 5.79486 12.8387C5.87895 12.424 6.08651 12.0431 6.3913 11.7442C6.69609 11.4452 7.08441 11.2416 7.50716 11.1592C7.92992 11.0767 8.36811 11.119 8.76634 11.2808C9.16457 11.4426 9.50493 11.7166 9.7444 12.0681C9.98388 12.4196 10.1117 12.8329 10.1117 13.2557C10.1117 13.8226 9.88208 14.3663 9.47337 14.7672C9.06466 15.1681 8.51034 15.3933 7.93234 15.3933ZM28.273 15.3933C27.842 15.3933 27.4206 15.2679 27.0622 15.033C26.7038 14.7982 26.4245 14.4643 26.2595 14.0737C26.0946 13.6831 26.0514 13.2533 26.1355 12.8387C26.2196 12.424 26.4272 12.0431 26.732 11.7442C27.0367 11.4452 27.4251 11.2416 27.8478 11.1592C28.2706 11.0767 28.7088 11.119 29.107 11.2808C29.5052 11.4426 29.8456 11.7166 30.0851 12.0681C30.3245 12.4196 30.4523 12.8329 30.4523 13.2557C30.4523 13.8226 30.2227 14.3663 29.814 14.7672C29.4053 15.1681 28.851 15.3933 28.273 15.3933ZM34.0846 8.16819H33.3582C33.1655 8.16819 32.9807 8.24326 32.8445 8.37689C32.7082 8.51051 32.6317 8.69175 32.6317 8.88073C32.6317 9.0697 32.7082 9.25094 32.8445 9.38457C32.9807 9.51819 33.1655 9.59326 33.3582 9.59326H34.0846V11.7309C34.0846 11.9198 34.0081 12.1011 33.8718 12.2347C33.7356 12.3683 33.5508 12.4434 33.3582 12.4434H31.8035C31.6182 11.6632 31.1691 10.9676 30.5294 10.4695C29.8897 9.97152 29.097 9.70046 28.2803 9.70046C27.4635 9.70046 26.6708 9.97152 26.0311 10.4695C25.3914 10.9676 24.9424 11.6632 24.757 12.4434H11.4629C11.2775 11.6632 10.8284 10.9676 10.1887 10.4695C9.54901 9.97152 8.75632 9.70046 7.9396 9.70046C7.12288 9.70046 6.33019 9.97152 5.69048 10.4695C5.05078 10.9676 4.6017 11.6632 4.41631 12.4434H2.84717C2.65451 12.4434 2.46973 12.3683 2.33349 12.2347C2.19726 12.1011 2.12072 11.9198 2.12072 11.7309V9.59326H2.84717C3.03984 9.59326 3.22462 9.51819 3.36085 9.38457C3.49709 9.25094 3.57362 9.0697 3.57362 8.88073C3.57362 8.69175 3.49709 8.51051 3.36085 8.37689C3.22462 8.24326 3.03984 8.16819 2.84717 8.16819H2.12072V7.45566C2.12613 7.35196 2.15289 7.25041 2.19937 7.15712C2.24585 7.06383 2.3111 6.98073 2.39119 6.91283C2.47128 6.84492 2.56455 6.79362 2.66539 6.76201C2.76622 6.73039 2.87254 6.71912 2.97793 6.72887L10.8381 5.31805H27.5465C27.7392 5.31805 27.924 5.24298 28.0602 5.10936C28.1965 4.97573 28.273 4.79449 28.273 4.60552V3.59372L33.547 5.01879C33.6873 5.05458 33.8134 5.1307 33.9092 5.23736C34.005 5.34401 34.0661 5.47634 34.0846 5.61732V8.16819ZM23.1878 9.59326H13.0175C12.8248 9.59326 12.6401 9.66833 12.5038 9.80196C12.3676 9.93558 12.291 10.1168 12.291 10.3058C12.291 10.4948 12.3676 10.676 12.5038 10.8096C12.6401 10.9433 12.8248 11.0183 13.0175 11.0183H23.1878C23.3805 11.0183 23.5653 10.9433 23.7015 10.8096C23.8377 10.676 23.9143 10.4948 23.9143 10.3058C23.9143 10.1168 23.8377 9.93558 23.7015 9.80196C23.5653 9.66833 23.3805 9.59326 23.1878 9.59326Z" fill="black"/>
</svg>
