<svg width="547" height="340" viewBox="0 0 547 340" fill="none" xmlns="http://www.w3.org/2000/svg">
<path d="M0 50C0 26.4298 0 14.6447 7.32233 7.32233C14.6447 0 26.4298 0 50 0H497C520.57 0 532.355 0 539.678 7.32233C547 14.6447 547 26.4298 547 50V290C547 313.57 547 325.355 539.678 332.678C532.355 340 520.57 340 497 340H50C26.4298 340 14.6447 340 7.32233 332.678C0 325.355 0 313.57 0 290V50Z" fill="#DAE7FF"/>
<mask id="mask0_2_987" style="mask-type:alpha" maskUnits="userSpaceOnUse" x="0" y="0" width="547" height="340">
<path d="M0 40C0 21.1438 0 11.7157 5.85786 5.85786C11.7157 0 21.1438 0 40 0H507C525.856 0 535.284 0 541.142 5.85786C547 11.7157 547 21.1438 547 40V300C547 318.856 547 328.284 541.142 334.142C535.284 340 525.856 340 507 340H40C21.1438 340 11.7157 340 5.85786 334.142C0 328.284 0 318.856 0 300V40Z" fill="#DAE7FF"/>
</mask>
<g mask="url(#mask0_2_987)">
<path d="M85.6774 325.619C85.6774 325.619 158.506 212.447 186.255 207.396C214.007 202.347 237.777 248.628 237.777 248.628C237.777 248.628 250.341 238.052 269.656 242.181C288.974 246.312 392.582 340.174 392.582 340.174L80.3606 336.416L85.6774 325.619Z" fill="#C9DBFF"/>
<path d="M120.121 233.537C184.78 243.922 281.798 337.255 355.694 337.255C429.591 337.255 445.503 314.932 473.212 319.652C500.925 324.374 538.124 337.255 538.124 337.255L-11 338.823C-11 338.823 55.4624 223.152 120.121 233.537Z" fill="#B9D1FF"/>
<path d="M162.616 194.05L149.981 292.622H175.251L162.616 194.05Z" fill="#4B49AC"/>
<path d="M186.255 216.062L173.62 314.633H198.89L186.255 216.062Z" fill="#4B49AC"/>
<path d="M12.476 329.583H8.60547V288.165H12.476V329.583Z" fill="#355389"/>
<path d="M10.5409 207.815L-2.09399 306.385H23.1757L10.5409 207.815Z" fill="#4B49AC"/>
<path d="M2.48853 270.634L20.5048 285.548L19.8121 280.144L3.04835 266.267L2.48853 270.634Z" fill="#4B49AC"/>
<path d="M5.25781 249.03L16.2901 252.67L15.7714 248.623L5.73435 245.311L5.25781 249.03Z" fill="#4B49AC"/>
<path d="M40.7952 319.118H38.011V272.021H40.7952V319.118Z" fill="#355389"/>
<path d="M40.1318 188.052L26.4116 283.116H53.8518L40.1318 188.052Z" fill="#4B49AC"/>
<path d="M27.2827 277.084L51.9006 269.593L51.5287 267.013L27.689 274.269L27.2827 277.084Z" fill="#4B49AC"/>
<path d="M31.6169 247.053L47.9308 242.087L47.5588 239.51L32.0232 244.236L31.6169 247.053Z" fill="#4B49AC"/>
<path d="M-11 338.823C-11 338.823 59.891 279.378 151.298 275.727C181.994 274.5 307.678 299.085 413.516 318.4C417.965 319.212 427.587 327.161 432.091 327.979C482.197 337.07 528.89 338.993 543.992 339.58L-11 338.823Z" fill="#74A67E"/>
<path d="M548.749 273.439L548.849 268.32C548.849 264.524 545.849 261.446 542.143 261.446C532.815 261.446 525.251 269.202 525.251 278.77V285.763C525.251 288.828 523.568 291.489 521.095 292.823C518.847 294.036 517.478 296.458 517.478 299.061V302.748C517.478 306.742 519.303 310.468 522.339 312.966C524.116 314.428 525.251 316.672 525.251 319.188V324.41C525.251 330.182 529.815 334.862 535.445 334.862H538.655C544.286 334.862 548.849 330.182 548.849 324.41C547.923 317.119 550.166 312.91 552.748 310.506C556.546 306.969 558.77 301.994 558.77 296.733V295.995C558.77 290.442 556.272 285.243 552.096 281.708C550.251 280.148 548.749 277.598 548.749 273.439Z" fill="#B9D1FF"/>
<path d="M559.241 340.924C559.241 340.924 533.216 307.553 516.84 302.436C500.464 297.318 515.897 317.645 515.897 317.645C515.897 317.645 486.849 286.978 476.188 289.743C466.414 292.276 476.188 311.286 476.188 311.286C476.188 311.286 465.176 300.759 451.831 300.759C438.482 300.759 462.15 340.174 462.15 340.174L559.241 340.924Z" fill="#74A67E"/>
<path d="M476.183 340.174C476.183 340.174 458.391 294.25 436.361 299.56C418.509 303.865 431.202 326.972 430.114 325.921C429.026 324.869 419.453 309.186 403.957 309.186C388.465 309.186 408.714 330.353 408.714 330.353C408.714 330.353 375.705 320.403 373.117 330.852C370.972 339.526 382.972 340.174 382.972 340.174H476.183Z" fill="#74A67E"/>
<path d="M250.964 271.209C252.268 271.967 253.466 272.991 254.654 273.902C261.136 278.871 267.712 283.681 276.65 293.789C288.6 307.305 297.528 322.653 302.972 339.416C303.167 340.016 304.148 339.759 303.951 339.157C300.408 328.374 295.385 318.059 289.069 308.531C272.002 282.794 250.734 271.075 250.964 271.209Z" fill="#466EB6"/>
<path d="M283.235 274.308C284.666 283.389 289.574 291.554 292.956 300.029C302.006 322.697 303.491 339.961 304.306 341.873C304.387 342.065 304.647 342.031 304.674 341.825C304.899 340.048 302.903 327.616 298.973 314.687C292.434 293.188 285.592 284.792 283.544 274.227C283.507 274.029 283.206 274.115 283.235 274.308Z" fill="#466EB6"/>
<path d="M261.719 271.671C261.474 272.142 260.468 273.419 260.331 274.943C260.068 276.405 260.674 278.115 260.705 278.047C260.798 278.071 259.199 277.085 258.492 275.282C257.665 273.572 257.727 271.043 258.333 270.127C259.321 268.11 261.472 267.641 262.02 268.485C262.595 269.321 262.195 270.612 261.719 271.671Z" fill="#466EB6"/>
<path d="M276.549 286.047C276.365 286.541 275.525 287.918 275.576 289.44C275.493 290.918 276.303 292.538 276.326 292.47C276.42 292.482 274.721 291.69 273.798 289.986C272.773 288.388 272.522 285.879 273.012 284.905C273.741 282.799 275.811 282.089 276.457 282.86C277.126 283.623 276.889 284.943 276.549 286.047Z" fill="#466EB6"/>
<path d="M295.427 293.126C295.046 293.252 293.834 293.42 292.949 294.152C292.028 294.79 291.431 295.989 291.482 295.969C291.521 296.029 291.208 294.714 291.802 293.416C292.28 292.103 293.664 290.807 294.474 290.629C296.072 290.062 297.451 290.886 297.289 291.603C297.143 292.329 296.242 292.805 295.427 293.126Z" fill="#466EB6"/>
<path d="M297.303 297.557C296.923 297.683 295.71 297.85 294.826 298.583C293.903 299.221 293.308 300.42 293.359 300.4C293.396 300.46 293.082 299.145 293.676 297.847C294.156 296.534 295.542 295.237 296.351 295.06C297.946 294.491 299.328 295.317 299.164 296.033C299.018 296.757 298.119 297.236 297.303 297.557Z" fill="#466EB6"/>
<path d="M255.433 281.077C255.75 280.7 256.471 279.398 257.742 278.705C258.909 277.931 260.624 277.768 260.58 277.818C260.635 277.884 259.169 276.97 257.333 277.088C255.53 277.074 253.362 278.091 252.799 278.931C251.427 280.503 251.843 282.422 252.784 282.542C253.729 282.685 254.697 281.867 255.433 281.077Z" fill="#466EB6"/>
<path d="M264.514 289.168C264.827 288.791 265.551 287.489 266.82 286.794C267.988 286.022 269.701 285.859 269.656 285.909C269.712 285.974 268.247 285.061 266.412 285.179C264.611 285.162 262.438 286.18 261.879 287.022C260.506 288.592 260.921 290.511 261.863 290.632C262.808 290.774 263.772 289.958 264.514 289.168Z" fill="#466EB6"/>
<path d="M280.616 281.915C281.118 281.94 282.636 281.74 283.963 282.325C285.294 282.785 286.44 284.03 286.369 284.022C286.348 284.104 286.254 282.422 285.077 281.058C284.033 279.641 281.905 278.54 280.87 278.596C278.749 278.446 277.382 279.897 277.835 280.705C278.268 281.527 279.522 281.802 280.616 281.915Z" fill="#466EB6"/>
<path d="M283.277 288.125C283.78 288.149 285.297 287.95 286.623 288.534C287.957 288.993 289.101 290.238 289.03 290.232C289.008 290.314 288.916 288.632 287.739 287.268C286.695 285.849 284.566 284.75 283.531 284.806C281.409 284.656 280.045 286.106 280.496 286.915C280.93 287.736 282.183 288.012 283.277 288.125Z" fill="#466EB6"/>
<path d="M276.069 301.636C276.385 301.26 277.106 299.957 278.378 299.263C279.545 298.491 281.261 298.327 281.214 298.377C281.27 298.443 279.805 297.529 277.968 297.647C276.169 297.631 273.997 298.648 273.434 299.49C272.065 301.06 272.476 302.979 273.422 303.101C274.364 303.242 275.331 302.427 276.069 301.636Z" fill="#466EB6"/>
<path d="M250.088 274.358C250.338 274.163 250.97 273.437 251.861 273.163C252.7 272.826 253.8 272.942 253.765 272.968C253.791 273.018 252.995 272.256 251.826 272.096C250.699 271.857 249.195 272.218 248.729 272.675C247.651 273.486 247.649 274.745 248.225 274.941C248.798 275.15 249.517 274.761 250.088 274.358Z" fill="#466EB6"/>
<path d="M252.497 269.264C252.484 269.573 252.264 270.497 252.574 271.351C252.799 272.2 253.555 272.979 253.555 272.935C253.611 272.927 252.503 272.771 251.669 271.965C250.79 271.237 250.186 269.861 250.283 269.226C250.309 267.908 251.35 267.15 251.857 267.477C252.376 267.792 252.484 268.58 252.497 269.264Z" fill="#466EB6"/>
<path d="M538.136 277.666C544.801 297.918 547.835 319.286 546.955 340.924H547.795C548.58 319.718 545.591 298.399 538.941 278.171C537.395 273.469 535.848 267.965 531.3 265.11C531.213 265.056 531.138 265.188 531.221 265.244C535.309 268.077 536.689 273.27 538.136 277.666Z" fill="#4B49AC"/>
<path d="M543.992 340.924C535.851 320.79 524.591 301.214 509.827 282.903C509.681 282.719 509.343 282.967 509.492 283.152C523.437 300.733 534.701 320.145 542.949 340.924H543.992Z" fill="#4B49AC"/>
<path d="M540.065 266.676C539.653 267.018 538.221 267.819 537.491 269.168C536.667 270.415 536.545 272.212 536.6 272.16C536.675 272.218 535.596 270.72 535.666 268.801C535.584 266.922 536.643 264.618 537.565 264.003C539.276 262.515 541.442 262.878 541.607 263.86C541.803 264.839 540.924 265.876 540.065 266.676Z" fill="#4B49AC"/>
<path d="M533.038 281.394C533.55 281.213 534.966 280.387 536.542 280.423C538.072 280.327 539.761 281.093 539.691 281.115C539.703 281.205 538.866 279.573 537.094 278.701C535.428 277.724 532.827 277.511 531.822 277.991C529.647 278.717 528.932 280.724 529.737 281.338C530.535 281.977 531.9 281.733 533.038 281.394Z" fill="#4B49AC"/>
<path d="M535.302 289.229C535.809 289.045 537.225 288.221 538.807 288.255C540.334 288.161 542.022 288.925 541.951 288.947C541.963 289.039 541.127 287.405 539.353 286.535C537.689 285.558 535.086 285.342 534.082 285.825C531.907 286.551 531.193 288.556 531.998 289.172C532.794 289.811 534.16 289.568 535.302 289.229Z" fill="#4B49AC"/>
<path d="M516.178 301.092C516.692 300.909 518.109 300.085 519.685 300.118C521.216 300.025 522.902 300.791 522.83 300.811C522.845 300.902 522.008 299.269 520.233 298.399C518.566 297.422 515.965 297.208 514.964 297.689C512.786 298.415 512.074 300.422 512.881 301.036C513.673 301.675 515.04 301.431 516.178 301.092Z" fill="#4B49AC"/>
<path d="M510.417 292.726C510.926 292.542 512.344 291.718 513.921 291.752C515.449 291.659 517.139 292.422 517.067 292.444C517.082 292.536 516.245 290.903 514.468 290.033C512.805 289.055 510.205 288.84 509.198 289.323C507.022 290.049 506.309 292.054 507.116 292.67C507.908 293.306 509.278 293.065 510.417 292.726Z" fill="#4B49AC"/>
<path d="M543.734 275.827C543.272 276.102 541.728 276.674 540.785 277.895C539.766 279 539.352 280.756 539.415 280.716C539.482 280.782 538.665 279.14 539.044 277.255C539.269 275.386 540.694 273.273 541.704 272.806C543.635 271.597 545.715 272.286 545.719 273.279C545.751 274.276 544.713 275.166 543.734 275.827Z" fill="#4B49AC"/>
<path d="M547.689 285.071C547.104 285.201 545.18 285.213 543.923 286.272C542.583 287.16 541.907 289.093 541.986 289.071C542.058 289.181 541.239 286.843 541.887 284.736C542.348 282.584 544.281 280.663 545.545 280.541C547.995 279.931 550.433 281.672 550.337 282.871C550.277 284.086 548.933 284.704 547.689 285.071Z" fill="#4B49AC"/>
<path d="M550.869 298.343C550.269 298.377 548.373 298.076 546.946 298.918C545.474 299.574 544.47 301.371 544.55 301.361C544.606 301.481 544.202 299.043 545.21 297.072C546.038 295.026 548.277 293.446 549.545 293.532C552.069 293.326 554.165 295.439 553.865 296.606C553.589 297.795 552.161 298.186 550.869 298.343Z" fill="#4B49AC"/>
<path d="M529.668 301.529C529.2 301.667 527.636 301.782 526.675 302.714C525.64 303.508 525.204 305.118 525.265 305.096C525.331 305.179 524.524 303.324 524.929 301.575C525.177 299.799 526.636 298.13 527.66 297.962C529.614 297.33 531.699 298.613 531.695 299.594C531.714 300.585 530.66 301.162 529.668 301.529Z" fill="#4B49AC"/>
<path d="M528.771 266.667C529.065 266.537 529.866 265.99 530.798 265.944C531.699 265.823 532.732 266.204 532.689 266.22C532.705 266.273 532.136 265.344 531.045 264.903C530.016 264.394 528.465 264.378 527.897 264.706C526.644 265.228 526.311 266.443 526.814 266.774C527.313 267.117 528.11 266.916 528.771 266.667Z" fill="#4B49AC"/>
<path d="M532.437 262.326C532.344 262.623 531.888 263.463 531.965 264.365C531.961 265.24 532.487 266.18 532.499 266.138C532.553 266.142 531.524 265.721 530.929 264.738C530.271 263.82 530.047 262.34 530.31 261.749C530.677 260.48 531.884 260.002 532.29 260.44C532.708 260.874 532.607 261.663 532.437 262.326Z" fill="#4B49AC"/>
<path d="M506.802 284.784C507.093 284.656 507.896 284.108 508.829 284.062C509.729 283.94 510.763 284.323 510.722 284.339C510.733 284.391 510.166 283.461 509.076 283.021C508.049 282.512 506.496 282.496 505.925 282.823C504.674 283.346 504.342 284.561 504.846 284.892C505.346 285.235 506.141 285.033 506.802 284.784Z" fill="#4B49AC"/>
<path d="M510.957 280.525C510.837 280.814 510.31 281.614 510.31 282.518C510.232 283.391 510.68 284.367 510.695 284.327C510.751 284.337 509.757 283.834 509.249 282.807C508.67 281.841 508.573 280.349 508.883 279.78C509.357 278.544 510.602 278.163 510.968 278.633C511.349 279.096 511.181 279.876 510.957 280.525Z" fill="#4B49AC"/>
<path d="M328.733 330.632C329.252 330.944 330.564 332.005 331.235 332.663C333.08 334.469 334.749 337.04 335.659 339.942C335.718 340.126 335.739 340.295 335.915 340.403C335.954 340.429 336.021 340.413 336.045 340.369C336.154 340.176 336.064 339.996 336.002 339.793C335.576 338.337 334.695 336.509 333.37 334.732C331.126 331.722 329.462 331.027 328.743 330.614C328.733 330.608 328.722 330.624 328.733 330.632Z" fill="#466EB6"/>
<path d="M326.91 332.426C327.202 332.296 328.004 331.749 328.938 331.704C329.84 331.582 330.873 331.963 330.831 331.979C330.844 332.033 330.274 331.103 329.185 330.662C328.157 330.154 326.608 330.138 326.035 330.465C324.781 330.985 324.449 332.202 324.954 332.534C325.454 332.876 326.253 332.675 326.91 332.426Z" fill="#466EB6"/>
<path d="M330.578 328.085C330.483 328.382 330.028 329.222 330.104 330.124C330.096 331 330.627 331.939 330.638 331.897C330.696 331.901 329.663 331.48 329.066 330.497C328.408 329.579 328.185 328.099 328.448 327.509C328.816 326.24 330.02 325.761 330.428 326.2C330.846 326.633 330.743 327.423 330.578 328.085Z" fill="#466EB6"/>
<path d="M207.997 316.131C220.583 319.848 231.477 327.518 241.953 334.973C249.017 339.998 248.421 340.952 249.899 341.78C250.138 341.913 250.448 341.692 250.369 341.43C249.989 340.154 248.549 339.073 247.569 338.201C246.428 337.183 245.215 336.248 243.969 335.352C241.305 333.441 238.539 331.651 235.796 329.85C230.215 326.184 224.505 322.651 218.398 319.848C215.051 318.312 211.592 317.013 208.025 316.032C207.959 316.014 207.931 316.111 207.997 316.131Z" fill="#466EB6"/>
<path d="M220.34 314.408C220.156 314.901 219.317 316.279 219.369 317.801C219.286 319.278 220.094 320.899 220.117 320.83C220.212 320.844 218.511 320.052 217.591 318.348C216.562 316.75 216.314 314.24 216.802 313.267C217.533 311.158 219.602 310.448 220.249 311.222C220.916 311.982 220.679 313.305 220.34 314.408Z" fill="#466EB6"/>
<path d="M230.893 320.397C230.709 320.891 229.87 322.268 229.922 323.79C229.839 325.268 230.649 326.888 230.67 326.82C230.765 326.832 229.064 326.04 228.145 324.337C227.116 322.739 226.868 320.229 227.355 319.256C228.087 317.149 230.158 316.439 230.802 317.211C231.472 317.973 231.234 319.293 230.893 320.397Z" fill="#466EB6"/>
<path d="M241.427 327.457C241.243 327.951 240.403 329.328 240.453 330.85C240.374 332.328 241.181 333.948 241.204 333.88C241.3 333.892 239.599 333.1 238.68 331.396C237.65 329.798 237.4 327.289 237.89 326.315C238.621 324.209 240.689 323.499 241.337 324.271C242.004 325.033 241.767 326.353 241.427 327.457Z" fill="#466EB6"/>
<path d="M214.95 324.001C215.267 323.624 215.988 322.322 217.257 321.628C218.426 320.855 220.142 320.692 220.094 320.742C220.15 320.808 218.685 319.894 216.85 320.012C215.048 319.996 212.876 321.013 212.316 321.855C210.943 323.425 211.359 325.344 212.301 325.464C213.246 325.609 214.211 324.791 214.95 324.001Z" fill="#466EB6"/>
<path d="M225.938 330.186C226.252 329.807 226.975 328.504 228.244 327.812C229.412 327.04 231.127 326.876 231.081 326.926C231.137 326.992 229.672 326.076 227.837 326.196C226.035 326.18 223.863 327.197 223.303 328.039C221.931 329.609 222.346 331.528 223.288 331.648C224.233 331.791 225.198 330.976 225.938 330.186Z" fill="#466EB6"/>
<path d="M206.794 318.214C207.044 318.017 207.676 317.291 208.569 317.019C209.408 316.682 210.508 316.798 210.47 316.824C210.497 316.872 209.702 316.112 208.534 315.952C207.404 315.713 205.901 316.074 205.434 316.531C204.358 317.343 204.356 318.599 204.932 318.795C205.505 319.006 206.224 318.615 206.794 318.214Z" fill="#466EB6"/>
<path d="M209.205 313.117C209.193 313.429 208.972 314.352 209.282 315.204C209.507 316.054 210.263 316.832 210.263 316.79C210.319 316.78 209.211 316.624 208.377 315.818C207.5 315.092 206.897 313.716 206.994 313.079C207.017 311.763 208.058 311.005 208.567 311.332C209.085 311.647 209.193 312.435 209.205 313.117Z" fill="#466EB6"/>
<path d="M67.5859 141.451C62.6914 142.714 61.8768 160.927 61.8768 160.927L46.3633 159.21C46.3633 159.21 49.1913 140.218 57.3846 132.283C65.5779 124.347 86.2835 129.199 94.1555 134.14C102.027 139.079 98.6123 145.373 98.6123 145.373C98.6123 145.373 72.4803 140.188 67.5859 141.451Z" fill="#13375B"/>
<path d="M51.9926 156.614C51.1815 173.91 46.1591 175.442 46.0597 175.681C45.9547 175.701 41.944 178.678 37.5051 174.74L38.9804 173.296C39.6152 173.922 40.5824 174.485 41.5063 174.736C43.5678 175.255 44.9034 174.261 45.0667 174.213C45.1754 174.129 46.2293 173.515 46.7561 172.675C49.3324 169.35 50.5615 160.708 50.91 156.576L51.9926 156.614Z" fill="#355389"/>
<path d="M104.143 143.971C104.143 143.971 101.966 152.212 101.718 158.91C101.469 165.609 96.6862 171.197 96.0644 187.962C95.4426 204.727 92.9611 220.136 92.9611 220.136C92.9611 220.136 73.6909 221.432 69.8972 217.482C66.1037 213.534 67.7472 177.648 71.4985 160.201C75.2497 142.754 58.7564 137.996 67.3259 132.281C75.8955 126.565 87.0406 130.439 91.7586 131.991C96.4769 133.541 104.28 140.274 104.143 143.971Z" fill="#184655"/>
<path d="M72.3235 157.837C72.3235 157.837 70.0487 171.223 71.7591 184.78C73.4696 198.337 70.7467 225.085 70.7467 225.085C70.7467 225.085 56.3915 234.76 52.1738 227.08C51.3815 225.635 49.4873 208.501 49.3166 201.34C49.1356 193.731 50.2203 167.155 50.5854 158.543C50.6619 156.738 51.2157 154.984 52.1926 153.444C55.3297 148.497 62.5297 137.551 65.033 137.174C68.3008 136.679 74.0399 143.5 72.3235 157.837Z" fill="#F7CC7F"/>
<path d="M50.2078 167.79C52.227 169.689 65.0579 181.602 71.4984 182.462C71.4232 181.704 71.3577 180.95 71.3013 180.2C66.265 179.422 54.9178 169.326 50.3179 165.023C50.2824 165.904 50.2456 166.83 50.2078 167.79Z" fill="#13375B"/>
<path d="M72.2887 199.806C72.3025 199.062 72.3126 198.319 72.3182 197.583C68.4268 199.191 54.7336 198.164 49.3049 197.583C49.2977 198.357 49.295 199.072 49.2971 199.714C54.2736 200.248 67.6479 201.663 72.2887 199.806Z" fill="#13375B"/>
<path d="M50.5974 217.113C50.677 217.814 50.7578 218.5 50.8388 219.162C56.2489 220.209 66.6716 215.749 71.6734 213.654C71.7254 212.862 71.7767 212.046 71.8261 211.208C67.1756 213.159 55.3537 217.977 50.5974 217.113Z" fill="#13375B"/>
<path d="M50.2825 214.209C52.6873 215.182 67.6516 221.38 71.069 221.592C71.1219 220.979 71.1791 220.299 71.239 219.561C68.8307 219.346 57.438 214.747 50.0408 211.769C50.1179 212.583 50.1989 213.399 50.2825 214.209Z" fill="#13375B"/>
<path d="M64.9165 220.259H69.7195C71.4521 220.259 72.8565 218.903 72.8565 217.231V190.041C72.8565 188.369 71.4521 187.012 69.7195 187.012H64.9165C63.1842 187.012 61.7798 188.369 61.7798 190.041V217.231C61.7798 218.903 63.1842 220.259 64.9165 220.259Z" fill="#50BFA5"/>
<path d="M72.8565 199.149H61.7798V196.911H72.8565V199.149Z" fill="#13375B"/>
<path d="M63.991 313.851C63.991 313.851 58.8611 318.398 58.8495 318.406C58.1306 318.92 56.2025 320.044 55.6429 320.6C53.5404 322.687 67.0128 327.889 65.7963 324.933C65.6861 324.666 65.4795 322.312 66.131 321.542C67.135 320.355 68.9411 318.663 68.9411 318.663L63.991 313.851Z" fill="#F7A491"/>
<path d="M65.7923 324.891C65.7923 324.891 62.8989 323.403 61.5855 322.473C60.2722 321.544 60.1063 318.763 58.9255 318.356C57.6254 317.907 52.1641 323.299 52.1641 323.299C52.1641 323.299 62.839 334.499 68.425 338.229C69.6283 339.033 71.0869 338.778 71.602 338.786C73.5754 338.819 68.8951 330.726 65.7923 324.891Z" fill="#184655"/>
<path d="M128.595 322.669C128.595 322.669 130.188 330.112 130.19 330.128C130.287 331.099 130.302 333.561 130.535 334.407C131.411 337.587 144.397 327.929 140.735 327.367C140.405 327.317 138.758 326.679 138.19 325.697C137.206 323.99 136.27 320.794 136.27 320.794L128.595 322.669Z" fill="#F7A491"/>
<path d="M140.692 327.347C140.692 327.347 137.53 329.206 135.84 329.904C134.152 330.601 131.06 328.665 129.971 329.539C128.773 330.503 130.725 339.029 130.725 339.029C130.725 339.029 152.938 333.343 157.664 330.393C159.537 329.224 148.326 327.8 140.692 327.347Z" fill="#184655"/>
<path d="M144.154 215.332C140.61 213.824 140.461 214.448 140.012 214.245C139.481 214.001 135.567 207.564 135.567 207.564C135.567 207.564 123.894 188.668 123.303 187.627L120.978 164.857L108.612 163.134C108.612 163.134 111.844 187.818 112.253 189.073C112.662 190.328 131.666 214.029 133.265 216.17C133.265 216.17 134.148 219.419 134.774 221.44C135.4 223.463 136.96 225.085 137.231 225.625C137.27 225.705 138.283 227.451 140.151 229.268C141.759 230.834 141.021 228.628 141.021 228.628C141.021 228.628 138.611 225.205 138.938 225.063C139.188 224.953 140.384 226.9 142.145 228.65C142.598 229.101 143.046 229.541 143.461 229.946C144.553 231.004 145.578 230.653 144.629 229.366C144.294 228.913 143.718 228.173 143.226 227.702C142.695 227.193 142.387 226.559 142.013 226.064C141.269 225.083 140.711 224.377 140.773 224.369C140.851 224.359 140.854 224.061 141.35 224.524C141.947 225.081 142.928 226.537 143.877 227.289C144.414 227.716 145.476 228.674 145.476 228.674C145.476 228.674 147.382 229.829 147.495 229.745C148.107 229.286 147.055 228.143 146.241 227.656C145.902 227.09 144.751 226.112 144.751 226.112C144.751 226.112 142.916 223.629 143.294 223.367C143.455 223.254 144.78 224.644 146.313 225.807C147.735 226.886 149.37 227.75 149.649 227.509C150.122 227.102 148.684 225.739 148.684 225.739C148.684 225.739 147.619 224.837 147.291 224.512C146.906 224.131 145.85 222.902 145.85 222.902C145.85 222.902 142.393 218.454 142.771 218.232C143.152 218.013 144.352 217.806 144.67 218.007C144.989 218.208 145.354 218.875 145.673 219.076C145.993 219.28 146.601 219.28 146.908 218.921C147.216 218.562 146.096 217.016 146.096 217.016C146.096 217.016 145.177 215.767 144.154 215.332Z" fill="#F8A492"/>
<path d="M109.631 144.026C119.203 146.229 121.614 166.85 122.193 169.513C119.021 170.588 115.256 171.674 111.999 172.591L108.103 143.612C108.103 143.612 108.644 143.801 109.631 144.026Z" fill="#3C8F7C"/>
<path d="M116.64 220.535L130.405 273.652L139.107 325.095L128.271 326.503C128.271 326.503 113.007 287.166 112.582 282.637C112.158 278.111 104.495 256.945 104.495 256.945L116.64 220.535Z" fill="#355389"/>
<path d="M84.5124 214.386C84.5124 214.386 85.543 265.316 84.6932 270.05C83.8435 274.784 60.7812 315.164 60.7812 315.164L68.5453 323.311C68.5453 323.311 101.543 286.378 102.997 283.12C105.277 278.011 116.533 220.431 116.533 220.431L84.5124 214.386Z" fill="#13375B"/>
<path d="M97.157 143.905C97.157 143.905 91.3108 143.388 88.9736 148.738C86.6366 154.089 84.2994 179.813 85.3618 192.159C86.4242 204.508 81.9419 221.596 81.9419 221.596C102.322 231.78 116.807 220.766 116.807 220.766C116.807 220.766 122.188 173.515 120.207 164.789C116.063 146.552 108.102 143.612 108.102 143.612L97.157 143.905Z" fill="#96D9C9"/>
<path d="M80.9658 228.997C78.7579 225.522 78.2626 226.014 77.9917 225.564C77.6712 225.027 78.027 216.758 78.027 216.758C78.027 216.758 78.9121 192.377 79.0065 191.062L90.3118 168.554L80.5393 159.716C80.5393 159.716 68.9036 184.535 68.5258 185.939C68.1481 187.346 70.8393 220.481 70.9808 223.403C70.9808 223.403 69.8478 226.94 69.2105 229.182C68.5731 231.427 68.9825 233.846 68.9017 234.507C68.8899 234.602 68.7504 236.819 69.3148 239.598C69.8013 241.994 70.4479 239.514 70.4479 239.514C70.4479 239.514 70.3518 234.924 70.7194 234.981C71.0025 235.027 70.9054 237.535 71.4156 240.192C71.5468 240.874 71.6787 241.549 71.805 242.165C72.1362 243.787 73.236 244.06 73.1625 242.311C73.1366 241.694 73.0682 240.669 72.9147 239.943C72.7489 239.161 72.852 238.391 72.8144 237.712C72.7396 236.366 72.6677 235.384 72.7258 235.412C72.801 235.448 72.9771 235.173 73.1389 235.893C73.3338 236.761 73.336 238.688 73.7223 239.941C73.9411 240.651 74.3075 242.163 74.3075 242.163C74.3075 242.163 75.2922 244.351 75.4404 244.34C76.243 244.272 75.9952 242.594 75.5701 241.666C75.6057 240.94 75.1748 239.36 75.1748 239.36C75.1748 239.36 75.0273 235.979 75.5112 235.957C75.7173 235.947 76.0589 238.012 76.715 239.989C77.3244 241.824 78.2428 243.583 78.6271 243.524C79.2793 243.422 78.822 241.315 78.822 241.315C78.822 241.315 78.4217 239.855 78.3262 239.36C78.2142 238.78 78.0136 237.02 78.0136 237.02C78.0136 237.02 77.6019 230.866 78.0623 230.884C78.5228 230.9 79.6912 231.411 79.8505 231.784C80.0098 232.157 79.9389 232.991 80.0985 233.366C80.2576 233.739 80.7887 234.096 81.2669 233.942C81.7449 233.791 81.674 231.698 81.674 231.698C81.674 231.698 81.6031 229.998 80.9658 228.997Z" fill="#F8A492"/>
<path d="M75.7256 166.305L88.5367 175.899C88.5367 175.899 94.1936 170.692 97.0346 164.933C99.9106 159.104 96.4083 143.741 93.347 144.531C86.4998 146.301 75.7256 166.305 75.7256 166.305Z" fill="#96D9C9"/>
<path d="M99.6039 132.48L97.687 144.677C97.687 144.677 104.687 159.2 108.866 157.939C112.373 156.884 110.215 144.033 110.215 144.033C110.215 144.033 108.305 137.132 108.878 133.679C109.451 130.226 99.6039 132.48 99.6039 132.48Z" fill="#F7A491"/>
<path d="M108.877 133.679C109.451 130.226 99.6037 132.48 99.6037 132.48L99.4448 133.492C99.7329 134.168 100.085 134.748 100.513 135.191C102.712 137.477 106.15 138.85 109.122 138.954C108.825 137.092 108.642 135.095 108.877 133.679Z" fill="#F47458"/>
<path d="M97.9883 115.226C97.7102 115.129 95.7575 129.117 99.4628 132.965C103.168 136.815 110.387 138.074 112.976 135.044C115.84 131.69 115.696 116.655 109.936 112.697C104.175 108.737 97.9883 115.226 97.9883 115.226Z" fill="#F7A491"/>
<path d="M107.743 105.214C103.291 106.09 100.407 108.717 99.3468 109.836C97.3252 110.066 94.5771 111.145 91.7396 115.681C88.2503 121.257 90.827 127.435 94.8887 130.467C98.9505 133.5 98.8939 137.001 98.8939 137.001L99.5359 135.189C100.01 133.817 100.203 132.362 100.045 130.924C99.9496 130.06 99.7581 129.127 99.3877 128.359C98.4109 126.334 101.486 124.989 102.348 123.304C103.012 122.007 103.045 119.041 104.091 116.896L105.34 115.26C105.34 115.26 108.222 113.094 111.042 113.706C113.861 114.317 113.456 104.089 107.743 105.214Z" fill="#184655"/>
<path d="M102.158 125.793C102.188 127.501 101.384 128.897 100.363 128.915C99.3425 128.931 98.4911 127.561 98.4617 125.855C98.4324 124.147 99.236 122.751 100.257 122.733C101.278 122.717 102.129 124.088 102.158 125.793Z" fill="#F7A491"/>
<path d="M104.469 169.765C104.736 159.138 104.053 144.533 93.5539 140.388C89.8026 138.87 85.2211 140.577 81.7465 141.824C86.0103 141.25 90.0307 142.836 92.1074 143.959C100.75 148.178 100.683 160.261 100.37 169.673C99.5822 193.334 80.7975 190.829 80.7975 190.829L80.3599 192.405C80.3599 192.405 87.4166 194.639 96.4183 190.352C103.596 186.933 104.469 169.765 104.469 169.765Z" fill="#184655"/>
<path d="M450.023 247.643C450.023 247.643 444.223 275.166 446.871 277.722C449.515 280.275 464.153 285.486 467.475 284.295C470.8 283.102 477.637 251.659 475.738 248.541C473.839 245.424 451.565 243.262 450.023 247.643Z" fill="#3C8F7C"/>
<path d="M452.379 329.362C452.379 329.362 452.758 332.522 452.758 333.058C452.758 333.595 452.758 333.595 452.758 333.595L452.486 334.139L452.379 334.357L454.335 337.008C454.335 337.008 462.2 337.122 462.375 337.122C462.551 337.122 461.323 335.286 461.323 335.286C461.323 335.286 458.721 333.397 458.254 332.071C457.786 330.744 458.653 327.979 458.653 327.979L452.379 329.362Z" fill="#F7A491"/>
<path d="M414.473 310.45C414.473 310.45 411.673 312.128 411.239 312.461C410.803 312.794 410.803 312.794 410.803 312.794L410.529 313.339L410.419 313.554L407.051 313.724C407.051 313.724 402.07 307.849 401.963 307.715C401.853 307.583 403.393 307.915 403.393 307.915C403.393 307.915 406.538 308.325 407.905 307.854C409.272 307.382 412.038 304.755 412.038 304.755L414.473 310.45Z" fill="#F7A491"/>
<path d="M439.924 280.796L409.756 305.601L414.402 311.95C414.402 311.95 444.009 293.99 445.631 293.779C447.253 293.567 449.801 294.12 450.104 295.263C450.414 296.406 451.361 330.241 451.361 330.241H459.413L463.615 287.068L439.924 280.796Z" fill="#B75742"/>
<path d="M483.39 245.417C485.619 244.004 490.861 238.574 492.64 236.725C492.658 236.508 492.828 235.251 494.255 233.655C495.265 232.528 496.03 229.954 496.692 230.682C497.35 231.413 495.708 233.457 496.463 233.469C497.213 233.483 500.943 229.436 501.542 230.096C502.141 230.758 498.355 234.355 499.028 234.367C499.698 234.379 502.774 230.736 503.62 231.67C504.47 232.604 499.59 235.634 500.045 236.135C500.5 236.635 503.524 234.65 504.208 235.402C504.888 236.155 499.942 237.926 500.337 237.934C500.733 237.94 503.587 237.866 503.609 238.397C503.631 238.995 496.389 239.929 495.501 240.966C493.608 243.877 490.24 249.189 486.828 251.521C482.654 254.374 473.005 260.424 473.005 260.424L468.213 254.448C468.213 254.448 480.743 247.092 483.39 245.417Z" fill="#F7A491"/>
<path d="M496.459 234.756C496.645 235.109 496.725 235.492 496.751 235.879C496.736 235.943 496.915 237.192 495.81 238.141C496.24 237.369 496.715 236.51 496.459 234.756Z" fill="#F48C7F"/>
<path d="M439.159 238.88C437.387 236.953 433.8 230.387 432.587 228.153C432.627 227.938 432.802 226.683 431.856 224.782C431.189 223.439 431.148 220.762 430.313 221.301C429.478 221.837 430.508 224.223 429.777 224.047C429.05 223.87 426.543 219.021 425.789 219.507C425.031 219.994 427.712 224.425 427.059 224.265C426.405 224.108 424.424 219.814 423.353 220.503C422.282 221.189 426.173 225.344 425.597 225.713C425.021 226.083 422.642 223.403 421.78 223.956C420.918 224.511 425.209 227.469 424.825 227.375C424.445 227.283 421.709 226.491 421.544 226.996C421.359 227.569 428.096 230.3 428.676 231.524C429.713 234.81 431.526 240.791 434.187 243.903C437.441 247.709 445.115 255.986 445.115 255.986L451.361 251.425C451.361 251.425 441.261 241.164 439.159 238.88Z" fill="#F7A491"/>
<path d="M429.429 225.288C429.154 225.584 428.973 225.933 428.844 226.3C428.84 226.364 428.333 227.525 429.141 228.719C428.934 227.866 428.711 226.918 429.429 225.288Z" fill="#F48C7F"/>
<path d="M444.219 243.293L438.587 250.384L445.58 260.425C445.58 260.425 444.919 267.886 443.913 270.213C442.903 272.542 437.073 282.109 437.073 282.109C437.073 282.109 451.237 290.489 465.091 289.261C465.091 289.261 468.995 269.874 470.09 268.013C471.188 266.15 481.754 256.922 481.754 256.922L476.624 248.922L467.764 253.662C467.764 253.662 451.578 251.136 450.799 250.384C450.017 249.632 444.219 243.293 444.219 243.293Z" fill="#4B49AC"/>
<path d="M462.491 228.787C462.491 228.787 457.027 225.995 455.156 230.621C455.156 230.621 450.244 230.142 451.091 235.051C451.091 235.051 446.151 237.451 449.277 243.631C449.277 243.631 447.902 249.445 454.952 249.811C454.952 249.811 456.003 251.87 459.217 251.391C462.434 250.911 463.25 250.093 463.25 250.093C463.25 250.093 468.95 251.701 470.676 246.735C470.676 246.735 474.593 245.832 471.963 240.978C471.963 240.978 475.384 234.684 469.361 232.795C469.361 232.795 468.661 226.36 462.491 228.787Z" fill="#184655"/>
<path d="M464.7 242.42C464.256 243.615 464.575 244.822 465.416 245.111C466.252 245.401 467.29 244.666 467.735 243.47C468.179 242.273 467.86 241.068 467.023 240.779C466.186 240.487 465.145 241.223 464.7 242.42Z" fill="#F7A491"/>
<path d="M449.955 239.482C449.891 240.753 450.563 241.814 451.452 241.854C452.341 241.896 453.112 240.898 453.173 239.63C453.237 238.359 452.564 237.298 451.675 237.258C450.79 237.216 450.019 238.213 449.955 239.482Z" fill="#F7A491"/>
<path d="M456.21 247.892C456.21 247.974 455.498 250.921 455.12 252.479C454.982 253.061 455.285 253.653 455.845 253.901C457.351 254.565 460.308 255.489 462.346 253.701C462.535 253.54 462.635 253.304 462.628 253.061L462.374 246.029L456.21 247.892Z" fill="#F7A491"/>
<path d="M455.826 249.543C457.414 250.317 459.418 250.333 461.659 249.062C461.944 248.9 462.212 248.731 462.463 248.549L462.374 246.029L456.204 247.893C456.204 247.933 456.039 248.643 455.826 249.543Z" fill="#F48C7F"/>
<path d="M460.578 231.656C460.578 231.656 463.272 232.342 464.852 234.87C466.437 237.399 467.31 244.707 461.66 247.905C456.013 251.102 451.901 246.151 452.009 241.467C452.116 236.785 454.273 230.796 460.578 231.656Z" fill="#F7A491"/>
<path d="M450.946 338.951C449.741 338.804 451.816 334.784 452.484 334.14L461.32 335.286C461.32 335.286 465.574 337.192 466.585 338.165C466.821 338.396 466.855 338.802 465.816 338.951C462.481 339.43 453.61 339.276 450.946 338.951Z" fill="#466EB6"/>
<path d="M407.498 317.558C408.533 318.158 410.423 314.244 410.529 313.339L403.395 307.915C403.395 307.915 397.888 306.391 396.778 307.464C395.767 308.437 405.141 316.191 407.498 317.558Z" fill="#466EB6"/>
<path d="M467.34 281.426C461.644 275.926 462.774 259.028 463.817 251.89L466.262 252.221C465.378 258.268 464.172 274.999 469.085 279.741L467.34 281.426Z" fill="#3C8F7C"/>
<path d="M443.027 271.959L442.75 269.816C447.18 257.727 451.234 249.925 451.275 249.847L453.48 250.921C453.439 250.997 448.769 261.651 443.027 271.959Z" fill="#3C8F7C"/>
<path d="M358.092 251.505C358.092 251.505 348.377 250.261 344.831 252.03C341.284 253.801 339.344 274.88 339.344 274.88L342.493 275.803C342.493 275.803 342.044 290.4 344.451 291.413C346.854 292.428 363.76 289.281 367.615 285.56C371.469 281.84 364.212 250.728 364.212 250.728L358.092 251.505Z" fill="#3C8F7C"/>
<path d="M377.277 236.619C378.411 234.165 379.833 226.549 380.31 223.959C380.202 223.76 379.617 222.565 379.935 220.388C380.16 218.851 379.329 216.177 380.334 216.457C381.339 216.736 381.096 219.423 381.762 219.024C382.428 218.627 383.334 213.047 384.249 213.301C385.158 213.554 383.94 218.771 384.534 218.416C385.131 218.061 385.698 213.191 386.988 213.548C388.278 213.905 385.77 219.218 386.46 219.411C387.153 219.602 388.644 216.215 389.682 216.502C390.72 216.79 387.417 221.037 387.768 220.827C388.119 220.618 390.576 219 390.906 219.453C391.278 219.966 385.47 224.727 385.299 226.122C385.341 229.703 385.491 236.196 383.862 240.098C381.867 244.872 376.944 255.431 376.944 255.431L369.249 252.799C369.249 252.799 375.936 239.529 377.277 236.619Z" fill="#F7A491"/>
<path d="M382.511 220.154C382.881 220.363 383.177 220.655 383.425 220.98C383.449 221.044 384.333 222.043 383.919 223.476C383.845 222.564 383.759 221.554 382.511 220.154Z" fill="#F48C7F"/>
<path d="M328.02 253.396C328.02 253.396 328.358 252.191 327.513 250.188C326.97 248.904 327.042 246.406 326.274 246.865C325.505 247.323 326.329 249.6 325.684 249.4C325.043 249.199 323.002 244.555 322.305 244.97C321.611 245.386 323.825 249.647 323.25 249.468C322.672 249.288 321.077 245.187 320.094 245.775C319.111 246.364 322.413 250.429 321.884 250.745C321.355 251.06 319.339 248.445 318.546 248.917C317.756 249.39 321.471 252.362 321.129 252.257C320.791 252.149 318.381 251.275 318.216 251.74C318.026 252.265 323.027 254.377 323.489 255.548C323.955 256.719 331.619 268.719 334.161 268.988C336.703 269.257 348.949 262.985 350.048 260.645C351.147 258.307 350.398 255.628 348.776 255.12C347.148 254.613 335.678 260.903 335.169 260.743C334.659 260.586 328.02 253.396 328.02 253.396Z" fill="#F7A491"/>
<path d="M325.793 250.243C325.505 250.548 325.313 250.913 325.178 251.294C325.172 251.36 324.637 252.569 325.476 253.82C325.263 252.928 325.035 251.938 325.793 250.243Z" fill="#F48C7F"/>
<path d="M338.42 309.361C337.103 308.92 334.721 306.596 334.721 306.596C331.669 308.874 325.337 315.982 325.337 315.982C325.337 315.982 326.52 316.77 327.53 316.327C328.54 315.884 333.185 313.877 335.345 314.602C335.909 314.789 342.208 316.852 347.796 318.242C348.483 316.309 346.594 312.443 347.525 310.628C344.544 309.69 338.855 309.507 338.42 309.361Z" fill="#F7A491"/>
<path d="M336.895 308.461C336.895 308.461 331.415 313.867 330.885 314.827C330.447 315.609 323.648 318.292 323.307 317.289C322.965 316.287 331.397 305.543 332.727 305.15C334.055 304.757 336.895 308.461 336.895 308.461Z" fill="#07345A"/>
<path d="M372.382 325.075C371.921 326.306 369.455 328.548 369.455 328.548C371.933 331.365 379.639 337.18 379.639 337.18C379.639 337.18 380.47 336.07 379.982 335.135C379.498 334.2 377.035 328.382 377.786 326.364C377.983 325.837 379.422 321.921 380.772 319.708C378.688 319.09 376.644 318.136 374.683 317.289C373.712 320.076 372.532 324.668 372.382 325.075Z" fill="#F7A491"/>
<path d="M371.52 283.168C371.52 283.168 385.78 296.757 387.232 299.379C388.317 301.338 381.736 321.478 381.736 321.478C381.736 321.478 375.552 321.023 372.963 318.615C372.963 318.615 376.237 304.563 375.558 303.931C374.878 303.297 358.587 294.174 358.587 294.174L360.609 285.847L371.52 283.168Z" fill="#B75742"/>
<path d="M368.38 282.811C368.38 282.811 364.657 291.151 364.657 294.405C364.657 296.897 365.798 316.859 360.347 318.784C357.256 319.878 342.692 318.266 342.692 318.266L344.01 309.227C344.01 309.227 350.945 310.22 351.554 309.654C352.163 309.087 346.001 294.034 347.288 288.869C348.572 283.704 359.258 280.556 359.258 280.556L368.38 282.811Z" fill="#F47458"/>
<path d="M372.997 244.05C372.997 244.05 374.735 244.553 380.085 251.573L371.496 264.681L366.263 252.499L372.997 244.05Z" fill="#96D9C9"/>
<path d="M360.479 252.62C360.479 252.62 365.22 252.103 366.928 251.505C368.636 250.906 379.843 286.609 375.923 287.421C367.736 289.119 346.468 293.641 346.468 293.641C346.468 293.641 346.099 291.6 347.244 288.077C349.231 281.975 350.356 268.013 350.356 265.551C350.356 264.105 342.595 269.118 342.595 269.118L339.345 257.775C339.345 257.775 349.251 253.935 352.72 253.244C353.69 253.051 360.479 252.62 360.479 252.62Z" fill="#96D9C9"/>
<path d="M375.25 275.539C374.003 269.712 363.395 252.225 363.302 252.059L365.478 250.934C365.861 251.623 374.445 266.405 375.764 272.569L375.25 275.539Z" fill="#3C8F7C"/>
<path d="M371.532 326.385C371.532 326.385 377.713 331.827 378.831 332.354C379.744 332.781 381.85 339.22 380.691 339.578C379.535 339.933 368.06 331.951 367.589 330.618C367.118 329.286 371.532 326.385 371.532 326.385Z" fill="#07345A"/>
<path d="M347.157 283.196L346.045 281.489C346.141 281.433 355.525 275.65 356.584 268.27C357.653 260.814 352.21 252.98 352.154 252.902L353.88 251.767C354.122 252.112 359.834 260.311 358.652 268.546C357.459 276.862 347.578 282.943 347.157 283.196Z" fill="#3C8F7C"/>
<path d="M360.607 228.75C360.607 228.75 364.358 227.437 366.783 231.106C369.208 234.775 367.899 234.427 369.075 236.261C370.257 238.096 373.335 237.717 373.335 240.563C373.335 243.41 371.959 243.853 371.959 243.853C371.959 243.853 373.205 246.065 371.829 248.344C370.453 250.622 367.023 252.583 364.15 252.266C364.15 252.266 359.835 254.548 355.512 253.47C351.186 252.391 352.694 252.391 350.926 252.391C349.154 252.391 344.374 250.051 345.157 246.636C345.157 246.636 342.241 243.293 345.07 240.563C347.9 237.832 348.434 235.06 350.073 231.391C351.712 227.72 358.639 227.864 360.607 228.75Z" fill="#184655"/>
<path d="M363.115 248.28C363.115 248.28 362.956 253.319 363.447 253.792C363.937 254.264 364.621 255.048 363.9 256.251C363.18 257.452 360.051 256.686 358.593 255.998C357.195 255.338 356.29 254.109 356.29 254.109L357.022 246.129L363.115 248.28Z" fill="#F7A491"/>
<path d="M361.034 250.368C360.031 250.029 358.272 249.373 356.918 247.246L357.022 246.129L363.115 248.279C363.115 248.279 363.076 249.508 363.095 250.811C362.244 250.777 361.515 250.53 361.034 250.368Z" fill="#B75742"/>
<path d="M355.947 240.432C355.947 240.432 355.796 237.471 353.915 238.046C352.031 238.62 353.466 243.091 355.027 242.943C356.591 242.798 355.947 240.432 355.947 240.432Z" fill="#F7A491"/>
<path d="M361.87 230.758C361.87 230.758 364.817 230.695 366.324 232.909C367.832 235.123 369.472 241.449 366.981 245.814C364.49 250.179 361.314 249.104 360.001 248.661C358.691 248.216 356.103 247.236 354.79 243.157C353.481 239.075 354.432 229.905 361.87 230.758Z" fill="#F7A491"/>
<path d="M270.444 231.356C269.207 230.325 268.262 227.087 268.505 226.854C268.816 226.549 269.971 226.766 270.337 226.902C270.703 227.036 271.144 227.159 271.509 227.293C271.875 227.428 272.282 227.277 272.487 226.85C272.693 226.421 271.355 225.579 270.834 225.378C269.203 224.747 264.501 223.91 264.008 223.8C263.424 223.67 256.726 215.792 254.206 213.271L254.208 213.269C250.215 209.022 246.331 204.461 245.911 204.009L234.973 181.827L224.992 182.534C224.992 182.534 236.771 207.316 237.507 208.491C237.857 209.05 247.902 218.202 247.906 218.2C253.147 222.406 257.776 226.1 258.642 226.834C258.642 226.834 259.569 230.112 260.719 232.011C261.46 233.228 270.219 231.516 270.444 231.356Z" fill="#F48C7F"/>
<path d="M230.184 164.661C230.184 164.661 237.879 163.352 241.704 190.371L228.624 193.891L223.181 179.614L230.184 164.661Z" fill="#4B49AC"/>
<path d="M245.482 252.794V266.806C245.482 269.515 247.758 271.713 250.565 271.713H282.368C285.176 271.713 287.454 269.515 287.454 266.806V252.794H245.482Z" fill="#B75742"/>
<path d="M282.03 270.056L279.53 268.172L282.019 266.279L284.516 268.161L282.03 270.056ZM278.932 267.722L276.432 265.838L278.921 263.945L281.421 265.828L278.932 267.722ZM275.844 270.07L273.346 268.188L275.834 266.295L278.332 268.176L275.844 270.07ZM272.746 267.736L270.248 265.854L272.736 263.961L275.234 265.842L272.746 267.736ZM269.659 270.084L267.162 268.202L269.65 266.309L272.148 268.19L269.659 270.084ZM266.561 267.749L264.064 265.868L266.552 263.975L269.05 265.856L266.561 267.749ZM263.475 270.1L260.977 268.216L263.466 266.323L265.963 268.204L263.475 270.1ZM260.377 267.765L257.877 265.882L260.368 263.989L262.865 265.87L260.377 267.765ZM257.291 270.114L254.793 268.232L257.281 266.337L259.779 268.22L257.291 270.114ZM254.19 267.779L251.695 265.898L254.183 264.005L256.679 265.886L254.19 267.779ZM251.106 270.127L248.609 268.246L251.095 266.353L253.595 268.234L251.106 270.127ZM248.006 267.794L245.511 265.912L247.999 264.019L250.497 265.9L248.006 267.794ZM245.496 261.23L247.985 259.337L250.485 261.218L247.997 263.112L245.496 261.23ZM245.485 256.548L247.973 254.655L250.471 256.536L247.982 258.429L245.485 256.548ZM251.073 256.987L253.569 258.87L251.08 260.763L248.585 258.882L251.073 256.987ZM254.157 254.639L256.657 256.52L254.169 258.415L251.671 256.532L254.157 254.639ZM257.258 256.973L259.756 258.854L257.267 260.747L254.767 258.866L257.258 256.973ZM260.344 254.625L262.842 256.506L260.353 258.4L257.856 256.518L260.344 254.625ZM263.442 256.959L265.94 258.84L263.451 260.734L260.954 258.852L263.442 256.959ZM266.528 254.611L269.026 256.492L266.538 258.385L264.04 256.504L266.528 254.611ZM269.626 256.943L272.124 258.826L269.636 260.719L267.138 258.838L269.626 256.943ZM272.713 254.595L275.21 256.478L272.722 258.372L270.224 256.488L272.713 254.595ZM275.811 256.929L278.309 258.81L275.822 260.705L273.322 258.822L275.811 256.929ZM278.899 254.581L281.395 256.462L278.906 258.356L276.409 256.474L278.899 254.581ZM281.997 256.915L284.495 258.797L282.004 260.69L279.509 258.808L281.997 256.915ZM276.42 261.156L278.909 259.263L281.407 261.144L278.918 263.038L276.42 261.156ZM275.822 261.611L278.32 263.495L275.832 265.388L273.336 263.504L275.822 261.611ZM270.236 261.172L272.727 259.277L275.222 261.16L272.734 263.054L270.236 261.172ZM269.638 261.627L272.136 263.508L269.648 265.402L267.15 263.52L269.638 261.627ZM264.052 261.186L266.54 259.293L269.038 261.174L266.55 263.067L264.052 261.186ZM263.454 261.641L265.952 263.522L263.463 265.416L260.965 263.534L263.454 261.641ZM257.867 261.2L260.356 259.307L262.854 261.188L260.363 263.081L257.867 261.2ZM257.27 261.655L259.767 263.538L257.279 265.432L254.781 263.548L257.27 261.655ZM253.581 263.552L251.095 265.445L248.594 263.564L251.083 261.671L253.581 263.552ZM251.683 261.216L254.171 259.321L256.669 261.204L254.181 263.098L251.683 261.216ZM284.505 263.479L282.016 265.372L279.518 263.49L282.009 261.597L284.505 263.479ZM285.717 268.159L287.451 266.838C287.451 266.826 287.454 266.816 287.454 266.806V265.928L285.114 267.706L282.619 265.825L285.107 263.931L287.454 265.699V264.793L285.703 263.477L287.454 262.146V261.236L285.105 263.024L282.607 261.143L285.093 259.249L287.454 261.027V260.121L285.693 258.794L287.454 257.454V256.544L285.093 258.342L282.593 256.461L285.081 254.567L287.454 256.353V255.447L285.681 254.11L287.414 252.794H286.218L285.079 253.66L283.93 252.794H282.728L284.483 254.115L281.995 256.007L279.495 254.126L281.248 252.794H280.053L278.895 253.674L277.727 252.794H276.524L278.297 254.128L275.808 256.022L273.31 254.14L275.083 252.794H273.887L272.71 253.687L271.524 252.794H270.321L272.112 254.142L269.624 256.038L267.126 254.154L268.915 252.794H267.722L266.526 253.703L265.318 252.794H264.118L265.928 254.158L263.44 256.052L260.939 254.17L262.752 252.794H261.556L260.342 253.718L259.113 252.794H257.91L259.744 254.172L257.253 256.065L254.757 254.184L256.584 252.794H255.391L254.157 253.732L252.91 252.794H251.707L253.559 254.186L251.071 256.081L248.573 254.198L250.421 252.794H249.225L247.971 253.747L246.706 252.794H245.503L247.375 254.202L245.482 255.642V257.45L247.387 258.884L245.482 260.333V262.122L247.396 263.566L245.482 265.025V266.796L247.408 268.248L246.139 269.216C246.26 269.425 246.397 269.625 246.55 269.812L248.011 268.701L250.506 270.582L249.244 271.546C249.561 271.628 249.892 271.681 250.232 271.702L251.109 271.035L252.009 271.713H253.212L251.704 270.58L254.193 268.687L256.693 270.568L255.188 271.713H256.381L257.293 271.021L258.212 271.713H259.415L257.891 270.566L260.379 268.671L262.877 270.554L261.351 271.713H262.546L263.477 271.005L264.416 271.713H265.618L264.075 270.55L266.564 268.657L269.062 270.539L267.518 271.713H268.712L269.662 270.991L270.621 271.713H271.822L270.26 270.536L272.748 268.643L275.246 270.524L273.684 271.713H274.88L275.846 270.977L276.827 271.713H278.027L276.446 270.522L278.935 268.627L281.433 270.51L279.849 271.713H281.043L282.03 270.961L282.98 271.678C283.304 271.64 283.618 271.574 283.921 271.48L282.631 270.506L285.119 268.613L286.506 269.659C286.648 269.463 286.778 269.26 286.891 269.044L285.717 268.159Z" fill="#F48C7F"/>
<path d="M288.203 252.794H243.501C242.926 252.794 242.463 252.345 242.463 251.79V247.786C242.463 247.232 242.926 246.783 243.501 246.783H288.203C288.778 246.783 289.243 247.232 289.243 247.786V251.79C289.243 252.345 288.778 252.794 288.203 252.794Z" fill="#F47458"/>
<path d="M257.369 246.784L266.989 256.483L274.806 246.784H257.369Z" fill="#FAE0B2"/>
<path d="M277.889 251.266C277.021 251.266 276.32 250.587 276.32 249.75V242.935C276.32 236.99 271.868 231.002 266.087 231.002L263.903 230.958C258.122 230.958 254.244 236.99 254.244 242.935V249.75C254.244 250.587 253.538 251.266 252.672 251.266C251.805 251.266 251.101 250.587 251.101 249.75V242.935C251.101 235.319 257.213 229.121 264.724 229.121H265.835C273.347 229.121 279.46 235.319 279.46 242.935V249.75C279.46 250.587 278.755 251.266 277.889 251.266Z" fill="#B75742"/>
<path d="M278.837 249.79C278.837 250.265 278.435 250.652 277.943 250.652C277.451 250.652 277.049 250.265 277.049 249.79C277.049 249.313 277.451 248.926 277.943 248.926C278.435 248.926 278.837 249.313 278.837 249.79Z" fill="#FAE0B2"/>
<path d="M253.652 249.075C253.652 249.552 253.253 249.937 252.759 249.937C252.266 249.937 251.867 249.552 251.867 249.075C251.867 248.599 252.266 248.212 252.759 248.212C253.253 248.212 253.652 248.599 253.652 249.075Z" fill="#FAE0B2"/>
<path d="M260.269 228.45C260.269 228.45 259.461 233.401 261.884 233.952C264.303 234.5 269.851 232.462 269.328 231.59C268.805 230.72 263.685 226.938 262.925 227.672C262.168 228.404 261.313 227.809 260.269 228.45Z" fill="#F7A491"/>
<path d="M238.454 141.468C236.971 132.133 228.224 125.422 219.075 129.951C217.017 130.969 214.231 133.036 212.812 134.797C208.905 139.639 207.956 145.641 203.815 150.297C200.24 154.311 190.709 153.554 186.256 156.641C181.805 159.73 178.683 165.265 178.683 171.886C178.683 179.292 180.415 187.154 186.359 191.836C192.304 196.518 200.751 197.685 208.142 195.7C215.534 193.715 221.876 188.854 226.441 182.903C231.004 176.95 234.231 170.424 236.506 163.352C239.044 155.457 239.414 147.5 238.454 141.468Z" fill="#184655"/>
<path d="M235.138 168.429C230.369 158.169 214.448 157.015 204.323 162.582C201.315 164.236 200.779 164.113 198.89 165.937C193.941 170.714 186.713 219.629 201.812 222.711C216.913 225.793 229.745 224.388 234.723 216.84C238.058 211.785 242.479 184.217 235.138 168.429Z" fill="#F7CC7F"/>
<path d="M235.952 320.519C235.952 320.519 236.722 328.628 236.216 331.273C236.148 331.626 235.998 332.075 235.826 332.57C235.304 334.052 236.731 338.578 236.731 338.578L255.874 338.648C256.916 338.652 256.22 338.014 255.373 337.427C253.983 336.47 252.865 335.839 248.443 333.842C248.154 333.713 247.103 333.086 246.725 332.869C245.761 332.318 244.792 331.446 243.955 330.571C242.562 329.114 242.351 321.967 242.351 321.967L235.952 320.519Z" fill="#F7A491"/>
<path d="M246.72 332.867C241.676 334.179 237.924 333.373 235.82 332.586C235.299 334.066 234.319 339.071 234.904 339.071C239.705 339.071 243.767 339.946 257.523 339.739C258.015 339.731 257.956 338.097 257.633 337.736C256.746 336.741 247.102 333.084 246.72 332.867Z" fill="#355389"/>
<path d="M211.944 224.253C211.944 224.253 212.218 235.827 215.654 243.24C219.002 250.462 235.018 268.268 239.278 278.661C237.962 284.522 234.342 292.761 234.606 299.261C234.902 306.624 234.457 326.106 234.457 326.106L243.053 326.369L254.332 276.092L237.338 221.845L229.625 208.673L211.944 224.253Z" fill="#184655"/>
<path d="M175.218 308.988C175.218 308.988 169.936 315.986 167.609 317.755C166.363 318.703 162.98 319.974 162.622 321.54C162.265 323.108 177.945 336.964 177.945 336.964C178.776 337.672 178.683 336.691 178.431 335.65C178.02 333.944 177.586 332.681 175.505 328.093C175.371 327.794 174.986 326.579 174.839 326.15C174.472 325.059 174.333 323.704 174.3 322.439C174.248 320.331 179.274 314.48 179.274 314.48L175.218 308.988Z" fill="#F7A491"/>
<path d="M174.839 326.146C169.857 323.776 167.445 320.59 166.338 318.535C164.846 319.363 160.832 321.133 161.186 321.626C163.959 325.512 166.836 330.341 177.972 339.494C178.371 339.823 180.005 337.934 180.012 337.429C180.026 336.033 174.984 326.577 174.839 326.146Z" fill="#355389"/>
<path d="M204.979 154.127C204.979 154.127 193.748 134.776 191.016 130.663C188.284 126.549 181.165 110.203 180.91 109.559C180.656 108.917 185.812 101.18 184.661 100.915C183.51 100.65 182.237 104.995 181.01 104.474C179.782 103.955 176.195 93.5 175.494 94.0187C174.186 94.9902 177.428 100.504 176.73 100.853C176.031 101.2 173.917 94.7847 172.547 94.9742C171.175 95.1617 175.153 100.853 174.771 101.356C174.387 101.859 170.258 96.4963 169.512 97.6394C169.105 98.2598 173.308 102.321 172.5 102.7C171.694 103.081 167.956 100.46 167.559 101.216C167.164 101.972 171.016 103.006 172.169 105.044C173.32 107.081 175.283 107.963 176.098 111.735C176.912 115.51 178.131 129.163 182.305 135.975C186.478 142.788 195.657 157.865 195.657 157.865L204.979 154.127Z" fill="#F79C8D"/>
<path d="M212.551 216.84C212.551 216.84 205.903 226.477 204.32 234.455C202.781 242.223 205.341 265.677 202.663 276.551C198.106 280.627 190.251 285.38 186.61 290.85C182.483 297.048 170.558 312.772 170.558 312.772L177.447 317.741L216.527 282.771L232.348 236.115L237.777 222.472L212.551 216.84Z" fill="#13375B"/>
<path d="M217.93 162.002C217.93 162.002 209.131 161.462 205.649 165.117C202.167 168.773 213.371 197.693 214.006 202.347C214.638 206.999 208.811 216.277 208.811 216.277C208.811 216.277 233.03 227.209 238.94 223.443C238.94 223.443 237.992 186.153 237.36 182.829C236.727 179.506 231.451 165.99 230.185 164.66C228.918 163.331 217.93 162.002 217.93 162.002Z" fill="#4B49AC"/>
<path d="M220.86 150.671C220.86 150.671 220.815 150.923 220.732 151.348C220.339 153.385 218.829 160.147 217.808 162.006C216.574 164.253 222.032 171.418 227.283 170.543C228.847 170.283 225.962 163.959 226.101 163.289C226.365 162.008 226.727 160.259 227.095 158.466C227.302 157.454 227.512 156.429 227.711 155.463C228.273 152.724 228.73 150.484 228.73 150.484L220.86 150.671Z" fill="#F7A491"/>
<path d="M220.733 151.348C220.815 150.923 220.861 150.672 220.861 150.672L228.73 150.484C228.73 150.484 228.273 152.724 227.711 155.463C227.515 156.423 227.304 157.442 227.098 158.45C225.885 158.276 224.614 157.708 223.341 156.634C221.954 155.463 221.043 154.057 220.495 152.555C220.592 152.076 220.673 151.663 220.733 151.348Z" fill="#F47458"/>
<path d="M226.157 133.438C226.157 133.438 222.448 133.027 220.123 135.923C217.798 138.82 215.291 147.779 221.067 152.65C226.843 157.522 232.551 152.008 233.396 146.163C234.243 140.316 234.572 133.228 226.157 133.438Z" fill="#F7A491"/>
<path d="M235.105 146.075C234.417 147.366 233.259 148.082 232.522 147.673C231.782 147.264 231.743 145.886 232.433 144.593C233.121 143.302 234.278 142.588 235.018 142.997C235.756 143.406 235.795 144.785 235.105 146.075Z" fill="#F7A491"/>
<path d="M226.572 132.48C226.572 132.48 221.617 141 218.071 141.395C214.527 141.788 214.06 146.315 214.06 146.315C214.06 146.315 215.328 135.883 218.837 133.873C222.348 131.86 226.572 132.48 226.572 132.48Z" fill="#184655"/>
<path d="M219.001 143.536C219.29 145.048 218.709 146.436 217.705 146.634C216.703 146.833 215.655 145.768 215.366 144.254C215.079 142.742 215.657 141.353 216.662 141.156C217.666 140.956 218.714 142.022 219.001 143.536Z" fill="#F7A491"/>
<path d="M201.871 147.857C201.871 147.857 214.295 160.726 216.141 165.912C217.988 171.099 214.341 178.52 209.305 178.843C204.266 179.168 193.056 156 193.056 156L201.871 147.857Z" fill="#4B49AC"/>
<path d="M216.349 159.772C221.83 166.85 224.33 178.081 220.633 188.904C219.11 193.183 217.389 197.328 214.114 201.605C209.983 206.919 206.738 208.312 207.023 208.152L205.806 205.87C205.825 205.856 207.428 205.036 209.416 203.087C209.53 202.948 213.983 198.978 217.023 191.11C224.155 173.617 214.153 162.509 213.983 162.094C213.915 162.005 213.847 161.703 213.799 161.647L216.349 159.772Z" fill="#F7CC7F"/>
<path d="M238.341 202.975C236.695 181.797 227.592 163.662 227.491 163.544L229.972 163.35C230.083 163.482 232.753 164.889 235.285 170.754C237.376 175.595 239.737 183.199 239.774 192.917C239.78 194.929 238.341 202.975 238.341 202.975Z" fill="#F7CC7F"/>
</g>
<path d="M305 39.6429V42.1429V39.6429ZM305 82.1429V84.6429V82.1429ZM327.5 62.1429H325H327.5ZM285 62.1429H282.5H285ZM320.91 78.0529L319.142 76.2854L320.91 78.0529ZM290.857 48.0004L289.09 46.2329L290.857 48.0004ZM320.91 46.2329L319.142 48.0004L320.91 46.2329ZM290.857 76.2854L289.09 78.0529L290.857 76.2854ZM315 62.1429C315 64.795 313.946 67.3386 312.071 69.2139C310.196 71.0893 307.652 72.1429 305 72.1429C302.348 72.1429 299.804 71.0893 297.929 69.2139C296.054 67.3386 295 64.795 295 62.1429C295 59.4907 296.054 56.9471 297.929 55.0718C299.804 53.1964 302.348 52.1429 305 52.1429C307.652 52.1429 310.196 53.1964 312.071 55.0718C313.946 56.9471 315 59.4907 315 62.1429V62.1429Z" stroke="black" stroke-width="3.33333" stroke-linecap="round" stroke-linejoin="round"/>
<path d="M343.2 74C342.64 74 342.2 73.84 341.88 73.52C341.56 73.2 341.4 72.7733 341.4 72.24C341.4 71.68 341.56 71.2533 341.88 70.96C342.2 70.6667 342.64 70.52 343.2 70.52H348.08V49.24H350.16L344.32 52.96C343.893 53.2 343.493 53.2933 343.12 53.24C342.773 53.1867 342.467 53.04 342.2 52.8C341.96 52.56 341.787 52.2667 341.68 51.92C341.6 51.5733 341.627 51.2133 341.76 50.84C341.92 50.4667 342.2 50.16 342.6 49.92L348.12 46.44C348.573 46.1733 349 45.96 349.4 45.8C349.827 45.6133 350.227 45.52 350.6 45.52C351.053 45.52 351.427 45.6533 351.72 45.92C352.04 46.16 352.2 46.5733 352.2 47.16V70.52H356.68C357.267 70.52 357.72 70.6667 358.04 70.96C358.36 71.2533 358.52 71.68 358.52 72.24C358.52 72.8 358.36 73.24 358.04 73.56C357.72 73.8533 357.267 74 356.68 74H343.2ZM366.224 74C365.504 74 364.984 73.84 364.664 73.52C364.344 73.1733 364.184 72.7067 364.184 72.12C364.184 71.7467 364.278 71.3867 364.464 71.04C364.651 70.6933 364.918 70.3333 365.264 69.96L373.784 60.84C375.091 59.4533 376.024 58.1867 376.584 57.04C377.171 55.8667 377.464 54.6933 377.464 53.52C377.464 52.0267 377.011 50.8933 376.104 50.12C375.198 49.3467 373.864 48.96 372.104 48.96C371.038 48.96 370.011 49.12 369.024 49.44C368.038 49.76 367.051 50.28 366.064 51C365.664 51.2667 365.291 51.3867 364.944 51.36C364.598 51.3333 364.291 51.2 364.024 50.96C363.784 50.72 363.624 50.4267 363.544 50.08C363.464 49.7333 363.478 49.3733 363.584 49C363.691 48.6267 363.944 48.3067 364.344 48.04C365.438 47.2133 366.704 46.5733 368.144 46.12C369.584 45.6667 371.051 45.44 372.544 45.44C374.491 45.44 376.131 45.7467 377.464 46.36C378.824 46.9467 379.851 47.8133 380.544 48.96C381.238 50.1067 381.584 51.5067 381.584 53.16C381.584 54.28 381.398 55.3733 381.024 56.44C380.678 57.5067 380.131 58.6 379.384 59.72C378.664 60.8133 377.718 61.9733 376.544 63.2L368.464 71.68V70.52H381.184C381.771 70.52 382.224 70.6667 382.544 70.96C382.864 71.2533 383.024 71.68 383.024 72.24C383.024 72.8 382.864 73.24 382.544 73.56C382.224 73.8533 381.771 74 381.184 74H366.224ZM391.953 60.24C390.721 60.24 389.649 59.992 388.737 59.496C387.825 58.984 387.121 58.264 386.625 57.336C386.129 56.408 385.881 55.32 385.881 54.072C385.881 53.128 386.017 52.288 386.289 51.552C386.577 50.8 386.985 50.168 387.513 49.656C388.041 49.128 388.681 48.728 389.433 48.456C390.185 48.168 391.025 48.024 391.953 48.024C392.481 48.024 393.049 48.096 393.657 48.24C394.281 48.384 394.865 48.624 395.409 48.96C395.665 49.12 395.833 49.312 395.913 49.536C395.993 49.76 396.009 49.992 395.961 50.232C395.913 50.456 395.809 50.656 395.649 50.832C395.505 50.992 395.321 51.096 395.097 51.144C394.873 51.176 394.625 51.12 394.353 50.976C394.001 50.768 393.641 50.616 393.273 50.52C392.905 50.408 392.553 50.352 392.217 50.352C391.689 50.352 391.225 50.44 390.825 50.616C390.425 50.776 390.081 51.016 389.793 51.336C389.521 51.64 389.313 52.024 389.169 52.488C389.025 52.952 388.953 53.488 388.953 54.096C388.953 55.28 389.233 56.216 389.793 56.904C390.369 57.576 391.177 57.912 392.217 57.912C392.553 57.912 392.897 57.864 393.249 57.768C393.617 57.672 393.985 57.52 394.353 57.312C394.625 57.168 394.865 57.12 395.073 57.168C395.297 57.216 395.481 57.328 395.625 57.504C395.769 57.664 395.857 57.864 395.889 58.104C395.921 58.328 395.889 58.552 395.793 58.776C395.713 59 395.553 59.184 395.313 59.328C394.785 59.648 394.225 59.88 393.633 60.024C393.041 60.168 392.481 60.24 391.953 60.24Z" fill="#222222"/>
<path d="M412.68 56.14C412.347 56.14 412.087 56.0467 411.9 55.86C411.727 55.6733 411.64 55.4133 411.64 55.08V42.8C411.64 42.4533 411.727 42.1933 411.9 42.02C412.087 41.8467 412.347 41.76 412.68 41.76C413.013 41.76 413.267 41.8467 413.44 42.02C413.627 42.1933 413.72 42.4533 413.72 42.8V48.04H416.24L415.76 48.38L419.7 42.3C419.847 42.0733 420.02 41.92 420.22 41.84C420.42 41.76 420.62 41.7467 420.82 41.8C421.02 41.84 421.187 41.9333 421.32 42.08C421.467 42.2133 421.547 42.38 421.56 42.58C421.573 42.78 421.507 43 421.36 43.24L417.7 48.74L416.92 48.12C417.747 48.2267 418.453 48.5267 419.04 49.02C419.627 49.5133 420.133 50.1867 420.56 51.04L422.34 54.7C422.487 54.9533 422.533 55.1867 422.48 55.4C422.427 55.6133 422.313 55.7867 422.14 55.92C421.98 56.04 421.793 56.1067 421.58 56.12C421.38 56.1467 421.18 56.1067 420.98 56C420.78 55.9067 420.62 55.7333 420.5 55.48L418.82 51.9C418.46 51.14 418.04 50.6 417.56 50.28C417.08 49.9467 416.487 49.78 415.78 49.78H413.72V55.08C413.72 55.4133 413.633 55.6733 413.46 55.86C413.287 56.0467 413.027 56.14 412.68 56.14ZM425.665 59.74C425.345 59.74 425.098 59.6533 424.925 59.48C424.752 59.3067 424.665 59.0533 424.665 58.72V47.12C424.665 46.7867 424.752 46.5333 424.925 46.36C425.098 46.1867 425.338 46.1 425.645 46.1C425.965 46.1 426.212 46.1867 426.385 46.36C426.558 46.5333 426.645 46.7867 426.645 47.12V48.86L426.425 48.44C426.638 47.72 427.058 47.1467 427.685 46.72C428.312 46.28 429.052 46.06 429.905 46.06C430.772 46.06 431.525 46.2667 432.165 46.68C432.818 47.0933 433.318 47.6733 433.665 48.42C434.025 49.1667 434.205 50.0667 434.205 51.12C434.205 52.1467 434.025 53.0467 433.665 53.82C433.318 54.58 432.825 55.1667 432.185 55.58C431.545 55.98 430.785 56.18 429.905 56.18C429.065 56.18 428.332 55.9667 427.705 55.54C427.078 55.1133 426.658 54.5467 426.445 53.84H426.685V58.72C426.685 59.0533 426.592 59.3067 426.405 59.48C426.232 59.6533 425.985 59.74 425.665 59.74ZM429.405 54.62C429.965 54.62 430.452 54.4867 430.865 54.22C431.278 53.9533 431.598 53.56 431.825 53.04C432.052 52.52 432.165 51.88 432.165 51.12C432.165 49.9733 431.912 49.1067 431.405 48.52C430.912 47.9333 430.245 47.64 429.405 47.64C428.858 47.64 428.372 47.7733 427.945 48.04C427.532 48.2933 427.212 48.68 426.985 49.2C426.758 49.72 426.645 50.36 426.645 51.12C426.645 52.2533 426.898 53.12 427.405 53.72C427.912 54.32 428.578 54.62 429.405 54.62ZM439.816 56.18C439.136 56.18 438.523 56.0467 437.976 55.78C437.443 55.5133 437.023 55.1533 436.716 54.7C436.41 54.2467 436.256 53.7333 436.256 53.16C436.256 52.44 436.436 51.8733 436.796 51.46C437.17 51.0333 437.776 50.7333 438.616 50.56C439.47 50.3733 440.616 50.28 442.056 50.28H442.996V51.52H442.076C441.116 51.52 440.356 51.5667 439.796 51.66C439.236 51.7533 438.836 51.9133 438.596 52.14C438.37 52.3533 438.256 52.6533 438.256 53.04C438.256 53.5467 438.43 53.96 438.776 54.28C439.123 54.5867 439.603 54.74 440.216 54.74C440.71 54.74 441.143 54.6267 441.516 54.4C441.89 54.16 442.183 53.84 442.396 53.44C442.623 53.04 442.736 52.58 442.736 52.06V49.76C442.736 49 442.576 48.4533 442.256 48.12C441.936 47.7867 441.41 47.62 440.676 47.62C440.25 47.62 439.803 47.6733 439.336 47.78C438.883 47.8867 438.41 48.0667 437.916 48.32C437.69 48.4267 437.496 48.46 437.336 48.42C437.176 48.38 437.05 48.2933 436.956 48.16C436.863 48.0133 436.81 47.86 436.796 47.7C436.796 47.5267 436.836 47.36 436.916 47.2C437.01 47.04 437.163 46.92 437.376 46.84C437.963 46.56 438.543 46.36 439.116 46.24C439.69 46.12 440.23 46.06 440.736 46.06C441.63 46.06 442.363 46.2 442.936 46.48C443.523 46.76 443.956 47.1867 444.236 47.76C444.516 48.3333 444.656 49.0733 444.656 49.98V55.12C444.656 55.44 444.576 55.6933 444.416 55.88C444.256 56.0533 444.023 56.14 443.716 56.14C443.423 56.14 443.19 56.0533 443.016 55.88C442.843 55.6933 442.756 55.44 442.756 55.12V53.82H442.936C442.83 54.3133 442.63 54.74 442.336 55.1C442.056 55.4467 441.703 55.7133 441.276 55.9C440.85 56.0867 440.363 56.18 439.816 56.18ZM451.973 56.18C450.973 56.18 450.106 55.9733 449.373 55.56C448.653 55.1333 448.093 54.54 447.693 53.78C447.293 53.0067 447.093 52.1 447.093 51.06C447.093 50.2867 447.206 49.5933 447.433 48.98C447.659 48.3533 447.979 47.8267 448.393 47.4C448.819 46.9733 449.333 46.6467 449.933 46.42C450.546 46.18 451.226 46.06 451.973 46.06C452.439 46.06 452.926 46.1333 453.433 46.28C453.953 46.4133 454.433 46.64 454.873 46.96C455.046 47.0667 455.153 47.2 455.193 47.36C455.246 47.5067 455.253 47.66 455.213 47.82C455.186 47.98 455.113 48.12 454.993 48.24C454.886 48.3467 454.753 48.4133 454.593 48.44C454.433 48.4533 454.259 48.4067 454.073 48.3C453.753 48.0733 453.426 47.9133 453.093 47.82C452.759 47.7133 452.439 47.66 452.133 47.66C451.653 47.66 451.226 47.74 450.853 47.9C450.493 48.0467 450.186 48.2667 449.933 48.56C449.679 48.84 449.486 49.1933 449.353 49.62C449.233 50.0467 449.173 50.5333 449.173 51.08C449.173 52.1733 449.426 53.0333 449.933 53.66C450.453 54.2733 451.186 54.58 452.133 54.58C452.439 54.58 452.759 54.5333 453.093 54.44C453.426 54.3467 453.753 54.1867 454.073 53.96C454.259 53.8533 454.433 53.8133 454.593 53.84C454.753 53.8667 454.879 53.94 454.973 54.06C455.079 54.1667 455.146 54.3 455.173 54.46C455.213 54.6067 455.206 54.76 455.153 54.92C455.099 55.08 454.986 55.2133 454.813 55.32C454.386 55.6267 453.919 55.8467 453.413 55.98C452.919 56.1133 452.439 56.18 451.973 56.18ZM458.243 56.14C457.923 56.14 457.67 56.0533 457.483 55.88C457.31 55.6933 457.223 55.44 457.223 55.12V47.12C457.223 46.7733 457.31 46.52 457.483 46.36C457.67 46.1867 457.923 46.1 458.243 46.1C458.563 46.1 458.81 46.1867 458.983 46.36C459.156 46.52 459.243 46.7733 459.243 47.12V50.18H464.103V47.12C464.103 46.7733 464.183 46.52 464.343 46.36C464.516 46.1867 464.77 46.1 465.103 46.1C465.423 46.1 465.67 46.1867 465.843 46.36C466.03 46.52 466.123 46.7733 466.123 47.12V55.12C466.123 55.44 466.03 55.6933 465.843 55.88C465.67 56.0533 465.423 56.14 465.103 56.14C464.77 56.14 464.516 56.0533 464.343 55.88C464.183 55.6933 464.103 55.44 464.103 55.12V51.78H459.243V55.12C459.243 55.44 459.156 55.6933 458.983 55.88C458.823 56.0533 458.576 56.14 458.243 56.14ZM473.397 56.18C472.411 56.18 471.557 55.9733 470.837 55.56C470.131 55.1467 469.577 54.56 469.177 53.8C468.777 53.04 468.577 52.1467 468.577 51.12C468.577 50.3333 468.691 49.6333 468.917 49.02C469.144 48.4067 469.464 47.88 469.877 47.44C470.304 46.9867 470.811 46.6467 471.397 46.42C471.997 46.18 472.664 46.06 473.397 46.06C474.371 46.06 475.211 46.2667 475.917 46.68C476.637 47.0933 477.197 47.68 477.597 48.44C477.997 49.1867 478.197 50.08 478.197 51.12C478.197 51.8933 478.084 52.5933 477.857 53.22C477.631 53.8467 477.304 54.38 476.877 54.82C476.464 55.26 475.957 55.6 475.357 55.84C474.771 56.0667 474.117 56.18 473.397 56.18ZM473.397 54.62C473.944 54.62 474.424 54.4867 474.837 54.22C475.251 53.9533 475.571 53.56 475.797 53.04C476.037 52.52 476.157 51.88 476.157 51.12C476.157 49.9733 475.904 49.1067 475.397 48.52C474.891 47.9333 474.224 47.64 473.397 47.64C472.837 47.64 472.351 47.7733 471.937 48.04C471.524 48.2933 471.197 48.68 470.957 49.2C470.731 49.72 470.617 50.36 470.617 51.12C470.617 52.2533 470.871 53.12 471.377 53.72C471.884 54.32 472.557 54.62 473.397 54.62ZM480.56 58.74C480.293 58.74 480.08 58.66 479.92 58.5C479.76 58.34 479.68 58.1133 479.68 57.82V55.36C479.68 54.72 480.007 54.4 480.66 54.4H481.68L480.48 54.82C480.84 54.34 481.127 53.8333 481.34 53.3C481.553 52.7667 481.707 52.16 481.8 51.48C481.907 50.7867 481.96 49.9867 481.96 49.08V47.38C481.96 47.02 482.053 46.74 482.24 46.54C482.44 46.34 482.727 46.24 483.1 46.24H488.04C488.4 46.24 488.68 46.34 488.88 46.54C489.08 46.74 489.18 47.02 489.18 47.38V55.34L488.24 54.4H489.78C490.087 54.4 490.32 54.48 490.48 54.64C490.653 54.8 490.74 55.04 490.74 55.36V57.82C490.74 58.4333 490.453 58.74 489.88 58.74C489.6 58.74 489.387 58.66 489.24 58.5C489.093 58.34 489.02 58.1133 489.02 57.82V56H481.42V57.82C481.42 58.4333 481.133 58.74 480.56 58.74ZM482.64 54.4H487.26V47.82H483.72V49.5C483.72 50.42 483.627 51.3133 483.44 52.18C483.253 53.0467 482.987 53.7867 482.64 54.4ZM495.89 56.18C495.21 56.18 494.597 56.0467 494.05 55.78C493.517 55.5133 493.097 55.1533 492.79 54.7C492.484 54.2467 492.33 53.7333 492.33 53.16C492.33 52.44 492.51 51.8733 492.87 51.46C493.244 51.0333 493.85 50.7333 494.69 50.56C495.544 50.3733 496.69 50.28 498.13 50.28H499.07V51.52H498.15C497.19 51.52 496.43 51.5667 495.87 51.66C495.31 51.7533 494.91 51.9133 494.67 52.14C494.444 52.3533 494.33 52.6533 494.33 53.04C494.33 53.5467 494.504 53.96 494.85 54.28C495.197 54.5867 495.677 54.74 496.29 54.74C496.784 54.74 497.217 54.6267 497.59 54.4C497.964 54.16 498.257 53.84 498.47 53.44C498.697 53.04 498.81 52.58 498.81 52.06V49.76C498.81 49 498.65 48.4533 498.33 48.12C498.01 47.7867 497.484 47.62 496.75 47.62C496.324 47.62 495.877 47.6733 495.41 47.78C494.957 47.8867 494.484 48.0667 493.99 48.32C493.764 48.4267 493.57 48.46 493.41 48.42C493.25 48.38 493.124 48.2933 493.03 48.16C492.937 48.0133 492.884 47.86 492.87 47.7C492.87 47.5267 492.91 47.36 492.99 47.2C493.084 47.04 493.237 46.92 493.45 46.84C494.037 46.56 494.617 46.36 495.19 46.24C495.764 46.12 496.304 46.06 496.81 46.06C497.704 46.06 498.437 46.2 499.01 46.48C499.597 46.76 500.03 47.1867 500.31 47.76C500.59 48.3333 500.73 49.0733 500.73 49.98V55.12C500.73 55.44 500.65 55.6933 500.49 55.88C500.33 56.0533 500.097 56.14 499.79 56.14C499.497 56.14 499.264 56.0533 499.09 55.88C498.917 55.6933 498.83 55.44 498.83 55.12V53.82H499.01C498.904 54.3133 498.704 54.74 498.41 55.1C498.13 55.4467 497.777 55.7133 497.35 55.9C496.924 56.0867 496.437 56.18 495.89 56.18ZM504.747 59.74C504.427 59.74 504.18 59.6533 504.007 59.48C503.834 59.3067 503.747 59.0533 503.747 58.72V47.12C503.747 46.7867 503.834 46.5333 504.007 46.36C504.18 46.1867 504.42 46.1 504.727 46.1C505.047 46.1 505.294 46.1867 505.467 46.36C505.64 46.5333 505.727 46.7867 505.727 47.12V48.86L505.507 48.44C505.72 47.72 506.14 47.1467 506.767 46.72C507.394 46.28 508.134 46.06 508.987 46.06C509.854 46.06 510.607 46.2667 511.247 46.68C511.9 47.0933 512.4 47.6733 512.747 48.42C513.107 49.1667 513.287 50.0667 513.287 51.12C513.287 52.1467 513.107 53.0467 512.747 53.82C512.4 54.58 511.907 55.1667 511.267 55.58C510.627 55.98 509.867 56.18 508.987 56.18C508.147 56.18 507.414 55.9667 506.787 55.54C506.16 55.1133 505.74 54.5467 505.527 53.84H505.767V58.72C505.767 59.0533 505.674 59.3067 505.487 59.48C505.314 59.6533 505.067 59.74 504.747 59.74ZM508.487 54.62C509.047 54.62 509.534 54.4867 509.947 54.22C510.36 53.9533 510.68 53.56 510.907 53.04C511.134 52.52 511.247 51.88 511.247 51.12C511.247 49.9733 510.994 49.1067 510.487 48.52C509.994 47.9333 509.327 47.64 508.487 47.64C507.94 47.64 507.454 47.7733 507.027 48.04C506.614 48.2933 506.294 48.68 506.067 49.2C505.84 49.72 505.727 50.36 505.727 51.12C505.727 52.2533 505.98 53.12 506.487 53.72C506.994 54.32 507.66 54.62 508.487 54.62Z" fill="#222222"/>
<path d="M412.048 76.3692C411.835 76.3692 411.669 76.3105 411.552 76.1932C411.445 76.0652 411.392 75.8945 411.392 75.6812V65.6492C411.392 65.4252 411.451 65.2598 411.568 65.1532C411.685 65.0358 411.851 64.9772 412.064 64.9772H415.856C417.061 64.9772 417.989 65.2758 418.64 65.8732C419.291 66.4598 419.616 67.2918 419.616 68.3692C419.616 69.4358 419.291 70.2678 418.64 70.8652C417.989 71.4625 417.061 71.7612 415.856 71.7612H412.704V75.6812C412.704 75.8945 412.651 76.0652 412.544 76.1932C412.437 76.3105 412.272 76.3692 412.048 76.3692ZM412.704 70.6572H415.696C416.56 70.6572 417.211 70.4652 417.648 70.0812C418.096 69.6865 418.32 69.1158 418.32 68.3692C418.32 67.6118 418.096 67.0412 417.648 66.6572C417.211 66.2625 416.56 66.0652 415.696 66.0652H412.704V70.6572ZM424.403 76.4012C423.646 76.4012 422.99 76.2358 422.435 75.9052C421.88 75.5745 421.448 75.1105 421.139 74.5132C420.84 73.9052 420.691 73.1905 420.691 72.3692C420.691 71.7505 420.776 71.1958 420.947 70.7052C421.118 70.2038 421.368 69.7772 421.699 69.4252C422.03 69.0732 422.419 68.8065 422.867 68.6252C423.326 68.4332 423.838 68.3372 424.403 68.3372C425.16 68.3372 425.816 68.5025 426.371 68.8332C426.926 69.1638 427.352 69.6332 427.651 70.2412C427.96 70.8385 428.115 71.5478 428.115 72.3692C428.115 72.9878 428.03 73.5425 427.859 74.0332C427.688 74.5238 427.438 74.9505 427.107 75.3132C426.776 75.6652 426.382 75.9372 425.923 76.1292C425.475 76.3105 424.968 76.4012 424.403 76.4012ZM424.403 75.3612C424.883 75.3612 425.304 75.2438 425.667 75.0092C426.03 74.7745 426.307 74.4332 426.499 73.9852C426.702 73.5372 426.803 72.9985 426.803 72.3692C426.803 71.3985 426.584 70.6572 426.147 70.1452C425.72 69.6332 425.139 69.3772 424.403 69.3772C423.912 69.3772 423.486 69.4945 423.123 69.7292C422.771 69.9532 422.494 70.2892 422.291 70.7372C422.099 71.1745 422.003 71.7185 422.003 72.3692C422.003 73.3292 422.222 74.0705 422.659 74.5932C423.096 75.1052 423.678 75.3612 424.403 75.3612ZM433.53 76.4012C432.751 76.4012 432.079 76.2305 431.514 75.8892C430.948 75.5478 430.511 75.0732 430.202 74.4652C429.903 73.8465 429.754 73.1318 429.754 72.3212C429.754 71.7025 429.839 71.1478 430.01 70.6572C430.18 70.1665 430.431 69.7505 430.762 69.4092C431.092 69.0572 431.487 68.7905 431.946 68.6092C432.415 68.4278 432.943 68.3372 433.53 68.3372C433.914 68.3372 434.314 68.3958 434.73 68.5132C435.146 68.6305 435.524 68.8332 435.866 69.1212C435.972 69.1958 436.042 69.2865 436.074 69.3932C436.106 69.4998 436.106 69.6065 436.074 69.7132C436.042 69.8092 435.988 69.8945 435.914 69.9692C435.839 70.0332 435.743 70.0705 435.626 70.0812C435.519 70.0918 435.407 70.0545 435.29 69.9692C435.012 69.7558 434.73 69.6065 434.442 69.5212C434.154 69.4358 433.876 69.3932 433.61 69.3932C433.194 69.3932 432.831 69.4625 432.522 69.6012C432.212 69.7292 431.951 69.9158 431.738 70.1612C431.524 70.4065 431.359 70.7105 431.242 71.0732C431.135 71.4358 431.082 71.8572 431.082 72.3372C431.082 73.2652 431.3 74.0012 431.738 74.5452C432.175 75.0785 432.799 75.3452 433.61 75.3452C433.876 75.3452 434.148 75.3025 434.426 75.2172C434.714 75.1318 435.002 74.9825 435.29 74.7692C435.407 74.6838 435.519 74.6465 435.626 74.6572C435.732 74.6678 435.823 74.7105 435.898 74.7852C435.972 74.8492 436.02 74.9345 436.042 75.0412C436.074 75.1478 436.074 75.2545 436.042 75.3612C436.01 75.4572 435.94 75.5425 435.834 75.6172C435.492 75.8945 435.119 76.0972 434.714 76.2252C434.308 76.3425 433.914 76.4012 433.53 76.4012ZM441.092 76.4012C440.313 76.4012 439.641 76.2305 439.076 75.8892C438.511 75.5478 438.073 75.0732 437.764 74.4652C437.465 73.8465 437.316 73.1318 437.316 72.3212C437.316 71.7025 437.401 71.1478 437.572 70.6572C437.743 70.1665 437.993 69.7505 438.324 69.4092C438.655 69.0572 439.049 68.7905 439.508 68.6092C439.977 68.4278 440.505 68.3372 441.092 68.3372C441.476 68.3372 441.876 68.3958 442.292 68.5132C442.708 68.6305 443.087 68.8332 443.428 69.1212C443.535 69.1958 443.604 69.2865 443.636 69.3932C443.668 69.4998 443.668 69.6065 443.636 69.7132C443.604 69.8092 443.551 69.8945 443.476 69.9692C443.401 70.0332 443.305 70.0705 443.188 70.0812C443.081 70.0918 442.969 70.0545 442.852 69.9692C442.575 69.7558 442.292 69.6065 442.004 69.5212C441.716 69.4358 441.439 69.3932 441.172 69.3932C440.756 69.3932 440.393 69.4625 440.084 69.6012C439.775 69.7292 439.513 69.9158 439.3 70.1612C439.087 70.4065 438.921 70.7105 438.804 71.0732C438.697 71.4358 438.644 71.8572 438.644 72.3372C438.644 73.2652 438.863 74.0012 439.3 74.5452C439.737 75.0785 440.361 75.3452 441.172 75.3452C441.439 75.3452 441.711 75.3025 441.988 75.2172C442.276 75.1318 442.564 74.9825 442.852 74.7692C442.969 74.6838 443.081 74.6465 443.188 74.6572C443.295 74.6678 443.385 74.7105 443.46 74.7852C443.535 74.8492 443.583 74.9345 443.604 75.0412C443.636 75.1478 443.636 75.2545 443.604 75.3612C443.572 75.4572 443.503 75.5425 443.396 75.6172C443.055 75.8945 442.681 76.0972 442.276 76.2252C441.871 76.3425 441.476 76.4012 441.092 76.4012ZM445.935 76.3692C445.817 76.3692 445.711 76.3425 445.615 76.2892C445.529 76.2465 445.46 76.1718 445.407 76.0652C445.364 75.9585 445.343 75.8252 445.343 75.6652V69.0092C445.343 68.7958 445.396 68.6358 445.503 68.5292C445.609 68.4225 445.753 68.3692 445.935 68.3692C446.127 68.3692 446.271 68.4225 446.367 68.5292C446.473 68.6358 446.527 68.7958 446.527 69.0092V75.0252H446.127L450.783 68.7852C450.868 68.6678 450.969 68.5718 451.087 68.4972C451.204 68.4118 451.353 68.3692 451.535 68.3692C451.663 68.3692 451.769 68.3905 451.855 68.4332C451.94 68.4758 452.004 68.5505 452.047 68.6572C452.1 68.7532 452.127 68.8865 452.127 69.0572V75.7292C452.127 75.9318 452.073 76.0918 451.967 76.2092C451.871 76.3158 451.727 76.3692 451.535 76.3692C451.343 76.3692 451.193 76.3158 451.087 76.2092C450.991 76.0918 450.943 75.9318 450.943 75.7292V69.6972H451.343L446.671 75.9532C446.596 76.0598 446.5 76.1558 446.383 76.2412C446.276 76.3265 446.127 76.3692 445.935 76.3692ZM460.142 76.3692C459.94 76.3692 459.785 76.3158 459.678 76.2092C459.572 76.0918 459.518 75.9372 459.518 75.7452V73.2972H458.382C457.966 73.2972 457.609 73.4038 457.31 73.6172C457.012 73.8305 456.772 74.0918 456.59 74.4012L455.678 76.0012C455.582 76.1612 455.47 76.2678 455.342 76.3212C455.214 76.3745 455.086 76.3852 454.958 76.3532C454.83 76.3212 454.718 76.2572 454.622 76.1612C454.526 76.0652 454.468 75.9532 454.446 75.8252C454.425 75.6865 454.457 75.5425 454.542 75.3932L455.31 74.0972C455.492 73.7772 455.732 73.5105 456.03 73.2972C456.329 73.0838 456.633 72.9772 456.942 72.9772H457.15V73.1212C456.276 73.1212 455.598 72.9185 455.118 72.5132C454.638 72.1078 454.398 71.5425 454.398 70.8172C454.398 70.3372 454.5 69.9265 454.702 69.5852C454.916 69.2332 455.236 68.9612 455.662 68.7692C456.089 68.5772 456.617 68.4812 457.246 68.4812H460.062C460.286 68.4812 460.457 68.5398 460.574 68.6572C460.692 68.7745 460.75 68.9398 460.75 69.1532V75.7452C460.75 75.9372 460.692 76.0918 460.574 76.2092C460.468 76.3158 460.324 76.3692 460.142 76.3692ZM457.486 72.3532H459.518V69.3932H457.486C456.857 69.3932 456.393 69.5265 456.094 69.7932C455.796 70.0492 455.646 70.4065 455.646 70.8652C455.646 71.3345 455.796 71.7025 456.094 71.9692C456.393 72.2252 456.857 72.3532 457.486 72.3532Z" fill="#222222"/>
</svg>
